<svg xmlns="http://www.w3.org/2000/svg" viewBox="0 0 212.32 209.26"><title>Asset 135</title><g id="Layer_2" data-name="Layer 2"><g id="Layer_1-2" data-name="Layer 1"><path d="M9,18.93a232.17,232.17,0,0,1,49.86.89l-2.39-.32A162,162,0,0,1,97.41,30.36l-2.15-.91a129.14,129.14,0,0,1,28.6,16.63L122,44.67a115.86,115.86,0,0,1,20.6,20.44l-1.41-1.83a99.78,99.78,0,0,1,12.92,21.93l-.91-2.15A102.11,102.11,0,0,1,160.13,109l-.32-2.4c3,22.83-.29,45.84-2.66,68.55-.67,6.46-1.28,12.93-1.67,19.42-.36,5.8,6,10.28,11.39,8.68,4.14-1.25,8.23-4.18,10-8.25,1-2.31,1.61-4.4.91-6.93a9.18,9.18,0,0,0-4.13-5.38,9.07,9.07,0,0,0-6.94-.91c-2.07.67-4.47,2-5.38,4.14a8.35,8.35,0,0,1-.87,1.54l1.41-1.82a9.3,9.3,0,0,1-1.24,1.27l1.83-1.4a9.72,9.72,0,0,1-1.51.93l2.15-.91c-.34.14-.66.25-1,.36l11.4,8.68c1.27-21,4.85-41.87,5.45-62.95a157.88,157.88,0,0,0-2.25-32.56,104.59,104.59,0,0,0-9.59-28.55c-8.26-16.44-21-30.16-35.66-41.12C116.14,18,98.19,10.15,79.69,5.61,59.17.57,37.76-.77,16.7.39,14.13.53,11.57.72,9,.93A9.66,9.66,0,0,0,2.64,3.56a9,9,0,0,0,0,12.73A8.88,8.88,0,0,0,9,18.93Z"/><path d="M172.75,193.93q-18.83-24.87-36.42-50.65L124,155.6c.41.29.8.59,1.2.9l-1.82-1.41a55.78,55.78,0,0,1,9.55,9.75L131.53,163c5.38,7,9.42,14.87,13.51,22.66,2.06,3.94,4.14,7.87,6.41,11.7a54.94,54.94,0,0,0,4.83,7.21A12.64,12.64,0,0,0,168.62,209c3.39-.74,5.27-3.31,7.19-5.91l2.87-3.86q2.88-3.86,5.81-7.67l-1.41,1.82A236.25,236.25,0,0,1,209.72,164a9.08,9.08,0,0,0,0-12.73,9.2,9.2,0,0,0-12.73,0,217.56,217.56,0,0,0-19.12,20c-6.47,7.71-12.47,15.81-18.47,23.9l1.41-1.82a1.68,1.68,0,0,1-.43.41l1.82-1.41-.25.13,2.15-.91-.26.08,2.39-.33a1.51,1.51,0,0,1-.56,0l2.39.33a2.91,2.91,0,0,1-.58-.15l2.15.9a5.71,5.71,0,0,1-1.18-.67l1.82,1.41a8.34,8.34,0,0,1-1.26-1.26l1.41,1.82c-4.75-6.62-8.27-14.15-12.06-21.33a127.59,127.59,0,0,0-14-21.83,61.41,61.41,0,0,0-11.3-10.48l-2.15-.9a6.75,6.75,0,0,0-3.59-.16,8.57,8.57,0,0,0-5.17,2.47,10.8,10.8,0,0,0-2.31,4,9,9,0,0,0,.9,6.94q17.6,25.75,36.43,50.65c1.47,1.94,2.93,3.46,5.38,4.13a9,9,0,0,0,11.07-6.28c.5-2.2.52-5.05-.91-6.94Z"/></g></g></svg>