<svg xmlns="http://www.w3.org/2000/svg" viewBox="0 0 153.39 140.67"><title>Asset 145</title><g id="Layer_2" data-name="Layer 2"><g id="Layer_1-2" data-name="Layer 1"><path d="M9,18.58a150.27,150.27,0,0,1,31.66.54l-2.39-.32a104.44,104.44,0,0,1,26.51,7l-2.15-.91a83,83,0,0,1,18,10.49L78.87,34A74.32,74.32,0,0,1,92.24,47.27l-1.4-1.82A63.77,63.77,0,0,1,99,59.32l-.91-2.15a65.69,65.69,0,0,1,4.44,16.71l-.32-2.4c2.43,18.74-1.64,37.48-2.79,56.15-.35,5.73,6,10.39,11.4,8.68,3.43-1.09,6.79-3.37,8.33-6.76a9.76,9.76,0,0,0,.9-6.93A9,9,0,0,0,109,116.33c-2.09.68-4.43,2-5.38,4.14a5.44,5.44,0,0,1-.54,1l1.41-1.83a6.54,6.54,0,0,1-.77.81l1.82-1.41a7.12,7.12,0,0,1-.94.6l2.15-.91a4.54,4.54,0,0,1-.7.26l11.39,8.67c.83-13.51,3.13-26.92,3.5-40.47.37-14-1.71-28-8.12-40.67C101.52,24.25,78.76,9.5,55,3.68,40,0,24.36-.68,9,.58A9.63,9.63,0,0,0,2.64,3.22,9,9,0,0,0,2.64,16c1.68,1.53,4,2.83,6.37,2.63Z"/><path d="M114,127.53Q95.2,102.66,77.6,76.88L67.33,87.15c.28.2,1.51,1.13.44.31s.17.15.41.35c.76.63,1.5,1.29,2.22,2,1.3,1.22,2.53,2.51,3.71,3.85.57.65,1.12,1.31,1.66,2,.15.19.3.39.46.58.48.6-.66-.9-.61-.79a9,9,0,0,0,.89,1.19c1.1,1.5,2.14,3,3.14,4.61,4,6.31,7.35,13,10.85,19.61,1.73,3.25,3.49,6.48,5.4,9.63,2.88,4.75,6.23,10.1,12.48,10.23a9.09,9.09,0,0,0,6.46-2.6,32.1,32.1,0,0,0,3-3.87q2.08-2.8,4.18-5.6l2-2.68,1.17-1.53h0l.3-.39c1.43-1.83,2.87-3.65,4.34-5.46a220.59,220.59,0,0,1,21.41-22.78,7.55,7.55,0,0,0,0-10.6,7.66,7.66,0,0,0-10.61,0,217.26,217.26,0,0,0-19.26,20.18c-3.35,4-6.55,8.1-9.72,12.24-1.46,1.91-2.91,3.84-4.35,5.76l-2,2.71-1.14,1.54-.58.77a5.56,5.56,0,0,1,1.72-1.76l1.79-.76-.26.08,2-.27a2.11,2.11,0,0,1-.56,0l2,.27a3,3,0,0,1-.59-.15l1.79.75c-.2-.08-.39-.2-.59-.28-1-.38.64.33.65.56a6.42,6.42,0,0,0-.52-.5c-.83-.71.55.54.52.71,0-.22-.7-1.07-.83-1.26-.34-.53-.68-1.06-1-1.6-1.11-1.77-2.16-3.57-3.19-5.39-2.09-3.72-4-7.51-6-11.29-4.16-7.92-8.53-15.64-14.17-22.62A60.43,60.43,0,0,0,74.91,74.19a6.93,6.93,0,0,0-4.79-.89,7.13,7.13,0,0,0-4.3,2.07c-2.15,2.34-3.09,6.28-1.18,9.09q17.6,25.76,36.43,50.65a8.22,8.22,0,0,0,4.48,3.44,7.5,7.5,0,0,0,9.23-5.24c.41-1.83.43-4.2-.76-5.78Z"/></g></g></svg>