<svg xmlns="http://www.w3.org/2000/svg" viewBox="0 0 151.19 76.19"><title>Asset 125</title><g id="Layer_2" data-name="Layer 2"><g id="Layer_1-2" data-name="Layer 1"><path d="M53.11,13.52c-8.92-6.8-21.24-2.83-30,2.14A59.28,59.28,0,0,0,10,25.8C6.29,29.61,2.91,33.88,1.13,39-2.78,50.08,4,60.72,13,66.92S33.4,75,44.14,75.81c12.64.94,25.36,0,37.92-1.48a280.13,280.13,0,0,0,37.12-6.81,88,88,0,0,0,16.63-5.83c4.64-2.26,9.09-5.15,12.12-9.4,7-9.78,1.65-22.12-5.63-29.95S125.19,9.86,115.09,6.81C103.15,3.2,90.69,1.72,78.29.7c-3-.25-6-.47-9-.69a2.64,2.64,0,0,0-2.62,2.62A2.68,2.68,0,0,0,69.3,5.26c11.45.84,22.94,1.68,34.19,4,9.86,2.05,19.86,5.05,28.23,10.82,7.29,5,15.34,13.88,14.15,23.45-.52,4.2-3.24,7.66-6.6,10a51.68,51.68,0,0,1-14,6.69C114.38,63.86,103,66,91.67,67.77a250.8,250.8,0,0,1-35.25,3.15C45.91,71,34.89,70.48,24.88,67,16.4,64.12,7.47,57.81,5.51,48.53c-2-9.69,6.61-18.26,13.43-23.75a47.58,47.58,0,0,1,12.31-7.26c4.06-1.61,8.66-2.95,13.07-2.2a13.84,13.84,0,0,1,6.14,2.74,2.65,2.65,0,0,0,3.6-.95,2.7,2.7,0,0,0-1-3.59Z"/></g></g></svg>