<svg xmlns="http://www.w3.org/2000/svg" viewBox="0 0 154.89 142.11"><defs><style>.cls-1{fill:#fff;}</style></defs><title>Asset 85</title><g id="Layer_2" data-name="Layer 2"><g id="Layer_1-2" data-name="Layer 1"><path class="cls-1" d="M9,18.58a150.27,150.27,0,0,1,31.66.54l-2.39-.32a104.44,104.44,0,0,1,26.51,7l-2.15-.91a83,83,0,0,1,18,10.49L78.87,34A74.32,74.32,0,0,1,92.24,47.27l-1.4-1.82A63.77,63.77,0,0,1,99,59.32l-.91-2.15a65.69,65.69,0,0,1,4.44,16.71l-.32-2.4c2.43,18.74-1.64,37.48-2.79,56.15-.35,5.73,6,10.39,11.4,8.68,3.43-1.09,6.79-3.37,8.33-6.76a9.76,9.76,0,0,0,.9-6.93A9,9,0,0,0,109,116.33c-2.09.68-4.43,2-5.38,4.14a5.44,5.44,0,0,1-.54,1l1.41-1.83a6.54,6.54,0,0,1-.77.81l1.82-1.41a7.12,7.12,0,0,1-.94.6l2.15-.91a4.54,4.54,0,0,1-.7.26l11.39,8.67c.83-13.51,3.13-26.92,3.5-40.47.37-14-1.71-28-8.12-40.67C101.52,24.25,78.76,9.5,55,3.68,40,0,24.36-.68,9,.58A9.63,9.63,0,0,0,2.64,3.22,9,9,0,0,0,2.64,16c1.68,1.53,4,2.83,6.37,2.63Z"/><path class="cls-1" d="M115.32,126.78Q96.48,101.9,78.89,76.13L66.58,88.44l1.2.9L66,87.94a56.14,56.14,0,0,1,9.55,9.75L74.1,95.87c5.37,7,9.42,14.86,13.5,22.65,2.07,3.94,4.15,7.88,6.42,11.71a54.29,54.29,0,0,0,4.83,7.21,12.65,12.65,0,0,0,12.34,4.39c3.39-.75,5.26-3.32,7.18-5.91,1-1.29,1.91-2.58,2.87-3.86,1.92-2.57,3.85-5.14,5.81-7.68l-1.41,1.82a237,237,0,0,1,26.64-29.38,9.06,9.06,0,0,0,0-12.72,9.19,9.19,0,0,0-12.73,0,214.93,214.93,0,0,0-19.11,20C114,111.81,108,119.91,102,128l1.41-1.82a1.76,1.76,0,0,1-.44.42l1.82-1.41-.24.12,2.15-.9-.27.07,2.4-.32a2.11,2.11,0,0,1-.56,0l2.39.32a3,3,0,0,1-.59-.15l2.15.91a6,6,0,0,1-1.18-.68l1.82,1.41a8.34,8.34,0,0,1-1.26-1.26l1.41,1.82c-4.74-6.62-8.26-14.15-12.06-21.33A127.54,127.54,0,0,0,87,83.37,61.39,61.39,0,0,0,75.66,72.9L73.51,72a6.85,6.85,0,0,0-3.59-.16,8.47,8.47,0,0,0-5.16,2.48,10.61,10.61,0,0,0-2.32,4,9,9,0,0,0,.91,6.93Q80.94,111,99.77,135.86c1.48,1.95,2.93,3.46,5.38,4.14a9.24,9.24,0,0,0,6.94-.91,9.06,9.06,0,0,0,4.13-5.38c.5-2.2.52-5.05-.9-6.93Z"/></g></g></svg>