<svg xmlns="http://www.w3.org/2000/svg" viewBox="0 0 176.75 93.34"><defs><style>.cls-1{fill:#fff;}</style></defs><title>Asset 105</title><g id="Layer_2" data-name="Layer 2"><g id="Layer_1-2" data-name="Layer 1"><path class="cls-1" d="M15.4,35.45c-1.62,0-3.24,0-4.85.09a14.13,14.13,0,0,0-4,.39,11,11,0,0,0-4,2.32A8.81,8.81,0,0,0,.08,43.41a9,9,0,0,0,4.3,9c3.11,1.79,7.27,1.31,10.76,1.33l7.93,0H48.39q31.47,0,62.94-.16l37-.11v-18l-4.12,0c-4.7,0-9.21,4.13-9,9a9.16,9.16,0,0,0,9,9l4.12,0c4.7,0,9.22-4.11,9-9a9.15,9.15,0,0,0-9-9l-64.48.2q-28.69.07-57.39.07l-9.75,0c-2.56,0-5.18.13-7.72-.1l2.39.32h0l2.15.9h0L11.31,53.29h.06L9,53.6c2.12-.2,4.29-.12,6.42-.15,4.7-.07,9.22-4.09,9-9s-4-9.08-9-9Z"/><path class="cls-1" d="M159.68,34q-21.59,22.53-44.23,44L129.58,89a50.94,50.94,0,0,1,4.95-7.78L133.12,83c4.79-6.18,10.77-11.27,16.92-16l-1.82,1.41c4.21-3.25,8.51-6.37,12.72-9.62,2.6-2,5.2-4,7.71-6.15s4.88-4.05,6.39-6.84a12.18,12.18,0,0,0,1.37-8.89,11,11,0,0,0-5.83-7q-4.49-2.32-9-4.69c-5.94-3.15-11.83-6.41-17.56-10A214.44,214.44,0,0,1,125.94,2.62L127.76,4,126,2.64C124,1.1,122.21,0,119.61,0a9.13,9.13,0,0,0-6.36,2.64A9,9,0,0,0,110.61,9c.1,2.22.81,4.92,2.64,6.36a234.59,234.59,0,0,0,24.39,17c4.06,2.43,8.19,4.73,12.36,7,2.12,1.14,4.24,2.27,6.38,3.38s4.24,2,6.21,3.26l-1.82-1.41a1.8,1.8,0,0,1,.36.37l-1.41-1.82.12.22-.91-2.15a1.55,1.55,0,0,1,.13.48l-.32-2.39a3.15,3.15,0,0,1,0,.53l.32-2.4a4.64,4.64,0,0,1-.33,1.14l.91-2.15a7.4,7.4,0,0,1-.84,1.37l1.41-1.82a37.07,37.07,0,0,1-4.86,4.42c-1.73,1.46-3.51,2.87-5.31,4.26l1.83-1.41c-10.57,8.16-22.21,15.57-30.67,26.06A61.57,61.57,0,0,0,114,79.86a9,9,0,0,0,14.14,10.91q22.63-21.47,44.23-44c3.25-3.41,3.63-9.39,0-12.73s-9.25-3.63-12.73,0Z"/></g></g></svg>