<svg id="Lager_1" data-name="Lager 1" xmlns="http://www.w3.org/2000/svg" viewBox="0 0 150.97 103.11"><title>arrowdown</title><path d="M881.44,716.33c13-.21,26-.43,38.91.79,1.59.15,3.17.32,4.76.52.32,0,.63.07.95.12l.7.09,2.6.4c3.09.5,6.17,1.1,9.21,1.83a105.7,105.7,0,0,1,15.06,4.85c1.18.48-.51-.23.2.08l.91.4,1.81.82c1.19.56,2.37,1.15,3.54,1.76a78.94,78.94,0,0,1,7,4.11c1,.69,2.07,1.4,3.08,2.14l1,.7c.13.1.67.53,0,0l1.85,1.49a70.58,70.58,0,0,1,5.78,5.43c.91,1,1.8,2,2.65,3,.39.46.76.93,1.14,1.4s-.61-.83.16.2c.25.32.49.65.73,1a68.45,68.45,0,0,1,4.44,7c.63,1.12,1.22,2.25,1.79,3.4.29.61.58,1.22.86,1.83.15.31.28.61.42.92s.64,1.48.27.61c1,2.51,2,5.07,2.78,7.67.92,2.95,1.69,5.95,2.33,9,.34,1.56.63,3.12.9,4.69l.36,2.27c0,.34.1.69.14,1,.2,1.37-.1-.91.06.46a149.9,149.9,0,0,1,1.09,19.18l7.68-3.19a153.94,153.94,0,0,1-19.08-18.79,4.51,4.51,0,0,0-6.36,0,4.61,4.61,0,0,0,0,6.36A93.43,93.43,0,0,0,1001.25,808a12.79,12.79,0,0,0,7.14,2.3,9,9,0,0,0,7.22-4.41,46.67,46.67,0,0,0,3-6c1-2.15,2-4.33,2.94-6.51,2.24-5.18,4.31-10.42,6.16-15.74a4.52,4.52,0,0,0-3.14-5.53,4.61,4.61,0,0,0-5.54,3.14,198.31,198.31,0,0,1-9.63,23.1c-.38.77-.75,1.55-1.17,2.29-.12.23-.26.44-.39.66s-.45.47-.1.14-.14,0-.15.09c0-.29.61-.26,0-.06.51-.16,1.13-.26.25-.23-.51,0,.16,0,.24,0a3,3,0,0,0-.58-.17c-.44-.07,0,0,.13.09-.26-.11-.51-.25-.75-.38-.42-.23-.84-.48-1.24-.75-.78-.51-1.54-1.07-2.29-1.63l-1.06-.79c-.71-.54-.29-.22-.14-.1l-.69-.55c-1.55-1.23-3.07-2.52-4.55-3.85a100.14,100.14,0,0,1-9.4-9.7l-6.36,6.36a153.34,153.34,0,0,0,19.08,18.8,4.59,4.59,0,0,0,4.91.93,4.52,4.52,0,0,0,2.77-4.11c.14-23.45-4.52-48.15-19.85-66.64-15.18-18.32-38.54-26.94-61.51-30-14.94-2-30.06-1.74-45.09-1.49a4.5,4.5,0,0,0,0,9Z" transform="translate(-876.93 -707.17)"/></svg>