<svg xmlns="http://www.w3.org/2000/svg" viewBox="0 0 150.43 75.44"><title>Asset 105</title><g id="Layer_2" data-name="Layer 2"><g id="Layer_1-2" data-name="Layer 1"><path d="M52.55,13.47c-8.82-6.72-21-2.77-29.65,2.14a59.16,59.16,0,0,0-13,10.08c-3.68,3.76-7,8-8.79,13C-2.74,49.64,4,60.11,12.79,66.22c9,6.24,20.29,8,31,8.84,12.64.94,25.36,0,37.92-1.48a280,280,0,0,0,37-6.8A86.63,86.63,0,0,0,135.25,61c4.57-2.23,9-5.07,12-9.27,6.87-9.64,1.6-21.77-5.58-29.49s-17-12.4-27-15.44C102.7,3.19,90.27,1.72,77.91.69c-3-.24-6-.46-9-.69a2.27,2.27,0,0,0-2.25,2.25A2.28,2.28,0,0,0,68.93,4.5c11.48.85,23,1.7,34.28,4.05,9.89,2.06,19.93,5.08,28.32,10.86,7.42,5.1,15.6,14.13,14.33,23.88-.56,4.29-3.33,7.81-6.77,10.27A52.39,52.39,0,0,1,125,60.29C114.1,63.85,102.68,66,91.39,67.76A252.35,252.35,0,0,1,56,70.92C45.5,71,34.44,70.47,24.4,67c-8.6-3-17.65-9.35-19.63-18.77C2.69,38.41,11.34,29.73,18.3,24.14a48.39,48.39,0,0,1,12.47-7.36c4.12-1.63,8.8-3,13.27-2.19a14,14,0,0,1,6.23,2.77,2.27,2.27,0,0,0,3.08-.81,2.31,2.31,0,0,0-.8-3.08Z"/></g></g></svg>