<svg xmlns="http://www.w3.org/2000/svg" viewBox="0 0 151.94 76.94"><title>Asset 115</title><g id="Layer_2" data-name="Layer 2"><g id="Layer_1-2" data-name="Layer 1"><path d="M53.68,13.58c-9-6.89-21.52-2.9-30.4,2.13a60,60,0,0,0-13.15,10.2c-3.78,3.86-7.18,8.18-9,13.32-4,11.3,3,22.09,12,28.39s20.54,8.14,31.35,8.94c12.64.94,25.36,0,37.92-1.48a281.2,281.2,0,0,0,37.21-6.83,88.05,88.05,0,0,0,16.73-5.86c4.7-2.29,9.18-5.23,12.26-9.54,7.07-9.92,1.69-22.45-5.7-30.4S125.72,9.89,115.57,6.82C103.6,3.2,91.1,1.72,78.67.7c-3-.25-6-.47-9-.69a3,3,0,0,0-3,3,3.06,3.06,0,0,0,3,3c11.42.84,22.87,1.68,34.09,4,9.84,2,19.79,5,28.14,10.78,7.13,4.9,15.13,13.64,14,23-.51,4.17-3.27,7.57-6.43,9.82a51.35,51.35,0,0,1-13.93,6.66c-10.87,3.56-22.3,5.73-33.58,7.47a251,251,0,0,1-35.16,3.13c-10.47.12-21.45-.44-31.44-3.87C17,64.18,8.18,58,6.25,48.8c-2-9.52,6.64-18,13.33-23.38a47.63,47.63,0,0,1,12.14-7.16c4-1.6,8.66-2.93,12.88-2.2a13.44,13.44,0,0,1,6,2.7c1.29,1,3.36.2,4.11-1.08a3.07,3.07,0,0,0-1.08-4.1Z"/></g></g></svg>