<?xml version="1.0" encoding="UTF-8" standalone="yes"?>
<!DOCTYPE svg PUBLIC "-//W3C//DTD SVG 1.1//EN" "http://www.w3.org/Graphics/SVG/1.1/DTD/svg11.dtd">

<svg width="420" height="84" viewBox="0 0 420 84" xmlns="http://www.w3.org/2000/svg" xmlns:xlink="http://www.w3.org/1999/xlink" version="1.1" baseProfile="full">
    <g transform="scale(1,-1) translate(0,-84)">
        <path d="M 5.500000 80.916669 L 5.500000 20.750000 L 3.750000 22.500000 L 28.250001 22.500000 L 26.500001 20.750000 L 26.500001 80.916669 L 28.250001 79.166669 L 3.750000 79.166669 L 5.500000 80.916669 Z M 2.000000 80.916669 C 2.000000 81.883167 2.783502 82.666669 3.750000 82.666669 L 28.250001 82.666669 C 29.216499 82.666669 30.000001 81.883167 30.000001 80.916669 L 30.000001 20.750000 C 30.000001 19.783502 29.216499 19.000000 28.250001 19.000000 L 3.750000 19.000000 C 2.783502 19.000000 2.000000 19.783502 2.000000 20.750000 L 2.000000 80.916669 Z M 16.083334 41.666668 C 16.083334 27.070732 26.266846 20.916667 47.583335 20.916667 C 68.899825 20.916667 79.083336 27.070732 79.083336 41.666668 C 79.083336 56.262604 68.899825 62.416668 47.583335 62.416668 C 26.266846 62.416668 16.083334 56.262604 16.083334 41.666668 Z M 12.583334 41.666668 C 12.583334 58.664258 24.584347 65.916668 47.583335 65.916668 C 70.582323 65.916668 82.583336 58.664258 82.583336 41.666668 C 82.583336 24.669078 70.582323 17.416667 47.583335 17.416667 C 24.584347 17.416667 12.583334 24.669078 12.583334 41.666668 Z M 37.916668 41.666668 C 37.916668 49.890754 40.997589 55.250001 47.583335 55.250001 C 54.169082 55.250001 57.250002 49.890754 57.250002 41.666668 C 57.250002 33.442582 54.169082 28.083334 47.583335 28.083334 C 40.997589 28.083334 37.916668 33.442582 37.916668 41.666668 Z M 41.416668 41.666668 C 41.416668 35.119745 43.449678 31.583334 47.583335 31.583334 C 51.716993 31.583334 53.750002 35.119745 53.750002 41.666668 C 53.750002 48.213590 51.716993 51.750001 47.583335 51.750001 C 43.449678 51.750001 41.416668 48.213590 41.416668 41.666668 Z M 129.583339 60.833335 L 105.083338 60.833335 L 106.833338 62.583335 L 106.833338 41.750001 C 106.833338 34.216691 103.649883 30.083334 97.083338 30.083334 C 91.534779 30.083334 88.666671 33.398762 88.666671 40.166668 L 88.666671 62.583335 L 90.416671 60.833335 L 65.916670 60.833335 L 67.666670 62.583335 L 67.666670 37.583334 C 67.666670 30.923216 70.022890 26.536488 74.242665 23.888580 C 77.528286 21.826853 81.797081 20.916667 86.333337 20.916667 C 94.344247 20.916667 100.341705 23.701201 103.966897 29.063463 C 104.292359 29.544877 104.835565 29.833334 105.416671 29.833334 L 105.583338 29.833334 C 106.518937 29.833334 107.289050 29.097432 107.331533 28.162797 L 107.664866 20.829464 L 105.916671 22.500000 L 130.083339 22.500000 L 128.338655 20.613697 C 127.965565 25.389243 127.833339 30.357191 127.833339 37.166668 L 127.833339 62.583335 L 129.583339 60.833335 Z M 129.583339 64.333335 C 130.549837 64.333335 131.333339 63.549833 131.333339 62.583335 L 131.333339 37.166668 C 131.333339 30.440429 131.463415 25.553281 131.828022 20.886304 C 131.907485 19.869181 131.103561 19.000000 130.083339 19.000000 L 105.916671 19.000000 C 104.981072 19.000000 104.210960 19.735903 104.168476 20.670537 L 103.835143 28.003871 L 105.583338 28.083334 L 105.583338 26.333334 L 105.416671 26.333334 L 105.416671 28.083334 L 106.866446 27.103205 C 102.547355 20.714550 95.444223 17.416667 86.333337 17.416667 C 81.196694 17.416667 76.311728 18.458231 72.382342 20.923921 C 67.128200 24.220896 64.166670 29.734568 64.166670 37.583334 L 64.166670 62.583335 C 64.166670 63.549833 64.950172 64.333335 65.916670 64.333335 L 90.416671 64.333335 C 91.383169 64.333335 92.166671 63.549833 92.166671 62.583335 L 92.166671 40.166668 C 92.166671 35.228152 93.589568 33.583334 97.083338 33.583334 C 101.487807 33.583334 103.333338 35.979548 103.333338 41.750001 L 103.333338 62.583335 C 103.333338 63.549833 104.116840 64.333335 105.083338 64.333335 L 129.583339 64.333335 Z M 140.750006 41.666668 C 140.750006 49.772649 143.964546 54.750001 150.583340 54.750001 C 156.711180 54.750001 160.500007 49.389512 160.500007 41.666668 C 160.500007 33.627355 157.733141 28.583334 150.666673 28.583334 C 143.535476 28.583334 140.750006 33.616726 140.750006 41.666668 Z M 144.250006 41.666668 C 144.250006 35.292633 146.026026 32.083334 150.666673 32.083334 C 155.233701 32.083334 157.000007 35.303326 157.000007 41.666668 C 157.000007 47.664811 154.465972 51.250001 150.583340 51.250001 C 146.299355 51.250001 144.250006 48.076816 144.250006 41.666668 Z M 159.583340 22.500000 L 182.750008 22.500000 L 181.000008 20.750000 L 181.000008 80.916669 L 182.750008 79.166669 L 158.250007 79.166669 L 160.000007 80.916669 L 160.000007 57.500002 C 160.000007 55.925807 158.083746 55.152035 156.990674 56.284856 C 153.099624 60.317398 147.046388 62.416668 140.333340 62.416668 C 126.482383 62.416668 118.916672 55.050580 118.916672 41.500001 C 118.916672 28.143867 126.862599 20.916667 141.416673 20.916667 C 148.198688 20.916667 153.030998 22.839199 158.012570 27.820771 C 159.081272 28.889472 160.910933 28.192082 160.997157 26.683171 L 161.330490 20.849838 L 159.583340 22.500000 Z M 159.583340 19.000000 C 158.655625 19.000000 157.889116 19.723959 157.836190 20.650163 L 157.502857 26.483497 L 160.487444 25.345897 C 154.836575 19.695028 149.109883 17.416667 141.416673 17.416667 C 124.999752 17.416667 115.416672 26.132935 115.416672 41.500001 C 115.416672 57.004832 124.570022 65.916668 140.333340 65.916668 C 147.926927 65.916668 154.890868 63.501564 159.509340 58.715148 L 156.500007 57.500002 L 156.500007 80.916669 C 156.500007 81.883167 157.283509 82.666669 158.250007 82.666669 L 182.750008 82.666669 C 183.716506 82.666669 184.500008 81.883167 184.500008 80.916669 L 184.500008 20.750000 C 184.500008 19.783502 183.716506 19.000000 182.750008 19.000000 L 159.583340 19.000000 Z M 169.250008 6.500000 L 193.750009 6.500000 L 192.000009 4.750000 L 192.000009 25.666667 C 192.000009 27.207864 193.848117 27.996509 194.960843 26.930147 C 198.957184 23.100320 204.495722 20.916667 211.166676 20.916667 C 225.085164 20.916667 233.583343 28.156621 233.583343 41.166668 C 233.583343 55.638156 226.038898 62.416668 212.000009 62.416668 C 203.930014 62.416668 198.577698 59.666686 194.851400 54.331305 C 194.524047 53.862594 193.988384 53.583335 193.416675 53.583335 L 193.250009 53.583335 C 192.314763 53.583335 191.544810 54.318701 191.501855 55.252960 L 191.168522 62.502960 L 192.916675 60.833335 L 168.750008 60.833335 L 170.496377 62.696004 C 170.809916 57.836158 171.000008 51.515590 171.000008 46.750001 L 171.000008 4.750000 L 169.250008 6.500000 Z M 169.250008 3.000000 C 168.283510 3.000000 167.500008 3.783502 167.500008 4.750000 L 167.500008 46.750001 C 167.500008 51.442746 167.312166 57.688493 167.003639 62.470666 C 166.938559 63.479397 167.739180 64.333335 168.750008 64.333335 L 192.916675 64.333335 C 193.851922 64.333335 194.621874 63.597969 194.664829 62.663710 L 194.998162 55.413710 L 193.250009 55.333335 L 193.250009 57.083335 L 193.416675 57.083335 L 193.416675 55.333335 L 191.981951 56.335365 C 196.367456 62.614612 202.794278 65.916668 212.000009 65.916668 C 227.893325 65.916668 237.083343 57.659647 237.083343 41.166668 C 237.083343 26.088122 226.904884 17.416667 211.166676 17.416667 C 203.601266 17.416667 197.193086 19.943190 192.539174 24.403188 L 195.500009 25.666667 L 195.500009 4.750000 C 195.500009 3.783502 194.716507 3.000000 193.750009 3.000000 L 169.250008 3.000000 Z M 192.000009 41.666668 C 192.000009 49.389512 195.788836 54.750001 201.916676 54.750001 C 208.535469 54.750001 211.750009 49.772649 211.750009 41.666668 C 211.750009 33.616726 208.964540 28.583334 201.833342 28.583334 C 194.766874 28.583334 192.000009 33.627355 192.000009 41.666668 Z M 195.500009 41.666668 C 195.500009 35.303326 197.266315 32.083334 201.833342 32.083334 C 206.473990 32.083334 208.250009 35.292633 208.250009 41.666668 C 208.250009 48.076816 206.200660 51.250001 201.916676 51.250001 C 198.034044 51.250001 195.500009 47.664811 195.500009 41.666668 Z M 240.522339 50.778658 C 241.172157 54.807532 244.251185 57.083335 250.083345 57.083335 C 255.946052 57.083335 259.000011 53.715417 259.000011 48.666668 L 259.000011 46.333335 C 259.000011 45.366836 258.216510 44.583335 257.250011 44.583335 L 250.500011 44.583335 C 229.608111 44.583335 219.250010 40.887820 219.250010 31.416667 C 219.250010 27.092004 221.793021 23.936443 225.944285 22.389894 C 228.756017 21.318809 232.978504 20.916667 239.333344 20.916667 C 248.223153 20.916667 253.746737 22.880608 257.716824 27.843217 C 258.712710 29.088074 260.718698 28.461601 260.829140 26.871236 L 261.245807 20.871236 L 259.500012 22.500000 L 281.333346 22.500000 L 279.610597 20.442367 C 279.183843 22.832192 279.000012 24.609221 279.000012 26.333334 L 279.000012 46.250001 C 279.000012 57.958056 270.759836 62.416668 249.000011 62.416668 C 241.785194 62.416668 235.350963 61.576530 230.528461 59.777089 C 224.994367 57.712129 222.007856 54.636201 221.746706 50.392512 L 220.000010 52.250001 L 242.250011 52.250001 L 240.522339 50.778658 Z M 243.977683 50.221345 C 243.840913 49.373369 243.108946 48.750001 242.250011 48.750001 L 220.000010 48.750001 C 218.991236 48.750001 218.191353 49.600621 218.253315 50.607490 C 218.612636 56.446463 222.601846 60.555111 229.304894 63.056248 C 234.584472 65.026240 241.403852 65.916668 249.000011 65.916668 C 272.436175 65.916668 282.500012 60.471306 282.500012 46.250001 L 282.500012 26.333334 C 282.500012 24.835225 282.663176 23.257973 283.056094 21.057634 C 283.247635 19.985005 282.422942 19.000000 281.333346 19.000000 L 259.500012 19.000000 C 258.580564 19.000000 257.817913 19.711526 257.754216 20.628765 L 257.337549 26.628765 L 260.449865 25.656784 C 255.713948 19.736888 249.188327 17.416667 239.333344 17.416667 C 232.563184 17.416667 228.035671 17.847859 224.710352 19.114647 C 219.283671 21.136301 215.750010 25.521136 215.750010 31.416667 C 215.750010 38.123389 219.703425 42.650063 226.880709 45.210741 C 232.613182 47.255946 240.281847 48.083335 250.500011 48.083335 L 257.250011 48.083335 L 255.500011 46.333335 L 255.500011 48.666668 C 255.500011 51.854680 253.932502 53.583335 250.083345 53.583335 C 245.876288 53.583335 244.336357 52.445125 243.977683 50.221345 Z M 259.000011 38.333334 L 259.000011 37.000001 C 259.000011 30.822994 254.163192 26.250001 247.333345 26.250001 C 242.521862 26.250001 239.250011 29.003539 239.250011 32.750001 C 239.250011 37.799090 244.265418 40.083334 254.166678 40.083334 L 257.250011 40.083334 C 258.216510 40.083334 259.000011 39.299833 259.000011 38.333334 Z M 255.500011 38.333334 L 257.250011 38.333334 L 257.250011 36.583334 L 254.166678 36.583334 C 245.975546 36.583334 242.750011 35.114279 242.750011 32.750001 C 242.750011 31.083097 244.334043 29.750001 247.333345 29.750001 C 252.272729 29.750001 255.500011 32.801250 255.500011 37.000001 L 255.500011 38.333334 Z M 328.250014 50.500001 C 328.250014 59.188791 319.874087 62.416668 299.583347 62.416668 C 280.332155 62.416668 271.166679 58.149341 271.166679 49.250001 C 271.166679 45.043188 274.433241 41.888623 280.611379 40.894440 L 297.022047 38.312062 C 302.629089 37.449450 305.081048 36.949393 306.758526 36.235112 C 308.934413 35.308605 309.833347 33.884321 309.833347 31.666667 C 309.833347 27.839140 306.134489 26.250001 299.750013 26.250001 C 296.015206 26.250001 294.010175 26.522529 292.362728 27.491616 C 290.573889 28.543874 289.600272 30.106786 289.047602 32.427998 L 290.750013 31.083334 L 268.250012 31.083334 L 269.997318 32.930407 C 270.479772 24.246228 277.592926 20.916667 301.333347 20.916667 C 321.717133 20.916667 330.333348 24.811914 330.333348 32.833334 C 330.333348 39.353684 325.874297 42.009234 312.244760 44.018717 L 303.826266 45.268987 C 292.602435 46.909389 290.666680 47.735311 290.666680 51.666668 C 290.666680 55.150487 294.469003 57.083335 299.416680 57.083335 C 301.984838 57.083335 304.041203 56.732818 305.652150 55.879964 C 307.674187 54.809474 308.925254 53.103473 309.235314 50.726345 L 307.500014 52.250001 L 330.000014 52.250001 L 328.250014 50.500001 Z M 331.750014 50.500001 C 331.750014 49.533503 330.966513 48.750001 330.000014 48.750001 L 307.500014 48.750001 C 306.621012 48.750001 305.878402 49.402039 305.764713 50.273658 C 305.606023 51.490280 305.061951 52.232196 304.014543 52.786706 C 303.005844 53.320723 301.465189 53.583335 299.416680 53.583335 C 296.151242 53.583335 294.166680 52.574516 294.166680 51.666668 C 294.166680 50.453581 295.006672 50.095184 304.336427 48.731605 L 312.757095 47.481015 C 327.924137 45.244850 333.833348 41.725670 333.833348 32.833334 C 333.833348 22.119858 323.429977 17.416667 301.333347 17.416667 C 275.960130 17.416667 267.124015 21.552721 266.502707 32.736262 C 266.446979 33.739364 267.245364 34.583334 268.250012 34.583334 L 290.750013 34.583334 C 291.560369 34.583334 292.264729 34.026989 292.452424 33.238670 C 292.802392 31.768807 293.269617 31.018786 294.137298 30.508386 C 295.065609 29.962321 296.627678 29.750001 299.750013 29.750001 C 304.400021 29.750001 306.333347 30.580615 306.333347 31.666667 C 306.333347 33.095029 305.438519 33.476052 296.483913 34.853684 L 280.061313 37.437940 C 272.303842 38.686258 267.666679 43.164433 267.666679 49.250001 C 267.666679 60.812538 278.629464 65.916668 299.583347 65.916668 C 310.021419 65.916668 317.265785 65.109208 322.420975 63.122524 C 328.543023 60.763237 331.750014 56.618125 331.750014 50.500001 Z M 319.333348 69.916669 L 319.333348 62.583335 C 319.333348 61.616837 318.549846 60.833335 317.583348 60.833335 L 310.916681 60.833335 L 312.666681 62.583335 L 312.666681 50.916668 L 310.916681 52.666668 L 317.833348 52.666668 C 318.799846 52.666668 319.583348 51.883166 319.583348 50.916668 L 319.583348 36.333334 C 319.583348 24.237246 323.463868 20.916667 338.000015 20.916667 C 343.191588 20.916667 350.902296 21.706159 354.287054 22.458328 L 352.916683 20.750000 L 352.916683 31.916667 L 354.666683 31.916667 L 355.091120 30.218918 C 353.411690 29.799061 351.685879 29.583334 350.250016 29.583334 C 343.698596 29.583334 340.333349 32.609448 340.333349 38.750001 L 340.333349 50.916668 C 340.333349 51.883166 341.116851 52.666668 342.083349 52.666668 L 354.416683 52.666668 L 352.666683 50.916668 L 352.666683 62.583335 L 354.416683 60.833335 L 342.083349 60.833335 C 341.116851 60.833335 340.333349 61.616837 340.333349 62.583335 L 340.333349 77.500002 L 342.600795 75.828252 L 318.100795 68.244918 L 319.333348 69.916669 Z M 315.833348 69.916669 C 315.833348 70.683846 316.333028 71.361577 317.065902 71.588419 L 341.565902 79.171753 C 342.691834 79.520255 343.833349 78.678635 343.833349 77.500002 L 343.833349 62.583335 L 342.083349 64.333335 L 354.416683 64.333335 C 355.383181 64.333335 356.166683 63.549833 356.166683 62.583335 L 356.166683 50.916668 C 356.166683 49.950170 355.383181 49.166668 354.416683 49.166668 L 342.083349 49.166668 L 343.833349 50.916668 L 343.833349 38.750001 C 343.833349 34.630218 345.553591 33.083334 350.250016 33.083334 C 351.397486 33.083334 352.838342 33.263441 354.242245 33.614417 C 355.346752 33.890544 356.416683 33.055167 356.416683 31.916667 L 356.416683 20.750000 C 356.416683 19.929778 355.847002 19.219604 355.046311 19.041673 C 351.403379 18.232133 343.438998 17.416667 338.000015 17.416667 C 321.641390 17.416667 316.083348 22.172710 316.083348 36.333334 L 316.083348 50.916668 L 317.833348 49.166668 L 310.916681 49.166668 C 309.950183 49.166668 309.166681 49.950170 309.166681 50.916668 L 309.166681 62.583335 C 309.166681 63.549833 309.950183 64.333335 310.916681 64.333335 L 317.583348 64.333335 L 315.833348 62.583335 L 315.833348 69.916669 Z M 404.333351 38.333334 L 404.333351 40.583334 C 404.333351 55.620468 392.874642 62.416668 373.916684 62.416668 C 354.522408 62.416668 343.500016 55.382378 343.500016 41.416668 C 343.500016 27.682399 354.376324 20.916667 374.583350 20.916667 C 393.201400 20.916667 403.003858 25.962658 403.759977 33.019767 L 405.500018 31.083334 L 381.500017 31.083334 L 383.197767 32.408897 C 382.223228 28.510742 379.235820 26.250001 374.166684 26.250001 C 367.465464 26.250001 364.000017 30.434207 364.000017 38.333334 C 364.000017 39.299833 364.783518 40.083334 365.750017 40.083334 L 406.083351 40.083334 L 404.333351 38.333334 Z M 407.833351 38.333334 C 407.833351 37.366836 407.049850 36.583334 406.083351 36.583334 L 365.750017 36.583334 L 367.500017 38.333334 C 367.500017 32.236782 369.559621 29.750001 374.166684 29.750001 C 377.651119 29.750001 379.222640 30.939260 379.802268 33.257772 C 379.997028 34.036814 380.696999 34.583334 381.500017 34.583334 L 405.500018 34.583334 C 406.540294 34.583334 407.350883 33.681257 407.240059 32.646901 C 406.241234 23.324531 394.764482 17.416667 374.583350 17.416667 C 352.688874 17.416667 340.000016 25.309917 340.000016 41.416668 C 340.000016 57.729140 352.829476 65.916668 373.916684 65.916668 C 394.554657 65.916668 407.833351 58.041029 407.833351 40.583334 L 407.833351 38.333334 Z M 364.000017 46.333335 C 364.000017 52.861351 367.743509 57.083335 373.916684 57.083335 C 380.294058 57.083335 383.833351 52.940443 383.833351 46.333335 C 383.833351 45.366836 383.049849 44.583335 382.083351 44.583335 L 365.750017 44.583335 C 364.783518 44.583335 364.000017 45.366836 364.000017 46.333335 Z M 367.500017 46.333335 L 365.750017 48.083335 L 382.083351 48.083335 L 380.333351 46.333335 C 380.333351 51.118992 378.228051 53.583335 373.916684 53.583335 C 369.776525 53.583335 367.500017 51.015845 367.500017 46.333335 Z M 393.416685 80.916669 L 393.416685 20.750000 L 391.666685 22.500000 L 416.166686 22.500000 L 414.416686 20.750000 L 414.416686 80.916669 L 416.166686 79.166669 L 391.666685 79.166669 L 393.416685 80.916669 Z M 389.916685 80.916669 C 389.916685 81.883167 390.700187 82.666669 391.666685 82.666669 L 416.166686 82.666669 C 417.133184 82.666669 417.916686 81.883167 417.916686 80.916669 L 417.916686 20.750000 C 417.916686 19.783502 417.133184 19.000000 416.166686 19.000000 L 391.666685 19.000000 C 390.700187 19.000000 389.916685 19.783502 389.916685 20.750000 L 389.916685 80.916669 Z" transform="scale(1.000000,1.000000) translate(0.000000,-1.000000)" fill="#ffffff" opacity="1.000000"></path>
    </g>
</svg>