<?xml version="1.0" encoding="UTF-8" standalone="yes"?>
<!DOCTYPE svg PUBLIC "-//W3C//DTD SVG 1.1//EN" "http://www.w3.org/Graphics/SVG/1.1/DTD/svg11.dtd">

<svg width="355" height="82" viewBox="0 0 355 82" xmlns="http://www.w3.org/2000/svg" xmlns:xlink="http://www.w3.org/1999/xlink" version="1.1" baseProfile="full">
    <g transform="scale(1,-1) translate(0,-82)">
        <path d="M 74.761734 119.791666 Q 77.365901 137.499999 80.577706 146.180555 Q 83.789512 154.861110 86.567290 154.861110 Q 88.129790 154.861110 88.129790 152.256943 Q 88.129790 151.215277 87.956179 150.086804 Q 87.782567 148.958332 87.782567 147.743054 Q 87.782567 143.229166 90.386734 140.104166 Q 92.990901 136.979166 96.810345 136.979166 Q 100.803401 136.979166 103.494373 140.104166 Q 106.185345 143.229166 106.185345 148.090277 Q 106.185345 155.208332 102.018678 159.114582 Q 97.852012 163.020832 90.560345 163.020832 Q 77.886734 163.020832 68.424929 152.083332 Q 58.963123 141.145832 54.449234 119.791666 L 46.289512 119.791666 Q 42.817290 119.791666 42.817290 114.756944 Q 42.817290 112.499999 45.074234 112.499999 L 52.539512 112.499999 L 43.858957 71.875000 Q 40.733957 57.291666 38.477012 46.006944 Q 36.220068 34.722222 34.310346 26.996528 Q 32.400623 19.270833 30.577707 15.364583 Q 28.754790 11.458333 26.497846 11.458333 Q 23.025624 11.458333 23.025624 17.187500 L 23.025624 20.833333 Q 23.025624 26.215278 20.768679 29.166667 Q 18.511735 32.118055 14.518679 32.118055 Q 10.525624 32.118055 7.661040 28.645833 Q 4.796457 25.173611 4.796457 20.138889 Q 4.796457 12.847222 9.223540 8.506944 Q 13.650624 4.166667 21.983957 4.166667 Q 31.011735 4.166667 38.824234 10.069444 Q 46.636734 15.972222 52.713123 27.604167 Q 58.095068 38.020833 61.480484 53.645833 Q 64.865901 69.270833 69.032568 89.930555 L 73.546456 112.499999 L 84.136734 112.499999 Q 87.782567 112.499999 87.782567 117.534721 Q 87.782567 119.791666 85.525623 119.791666 Z M 147.331179 152.951388 Q 148.546457 157.291666 149.414512 159.809027 Q 150.282568 162.326388 150.282568 163.194443 Q 150.282568 164.062499 149.674929 164.670138 Q 149.067290 165.277777 148.372845 165.277777 Q 147.504790 165.277777 145.768679 164.322915 Q 144.032568 163.368054 140.820762 162.239582 Q 137.608957 161.111110 132.747846 160.156249 Q 127.886735 159.201388 120.942290 159.201388 Q 118.338123 159.201388 116.775623 158.680554 Q 115.213123 158.159721 115.213123 155.208332 Q 115.213123 153.819443 116.602012 153.298610 Q 117.990901 152.777777 119.640207 152.256943 Q 121.289512 151.736110 122.678401 150.954860 Q 124.067290 150.173610 124.067290 148.437499 Q 124.067290 146.874999 123.633262 145.052082 Q 123.199235 143.229166 122.678401 140.972221 L 105.490901 76.562499 Q 103.407568 68.750000 102.452707 63.368055 Q 101.497846 57.986111 101.497846 55.034722 Q 101.497846 48.437500 104.362429 44.531250 Q 107.227012 40.625000 112.435346 40.625000 Q 122.157568 40.625000 133.095068 55.208333 Q 136.740901 60.243055 138.216596 63.541666 Q 139.692290 66.840277 139.692290 67.534722 Q 139.692290 69.791666 138.303401 69.791666 Q 136.740901 69.791666 135.786040 67.881944 Q 134.831179 65.972222 132.400623 62.500000 Q 127.365901 54.861111 124.240901 54.861111 Q 122.678401 54.861111 122.678401 57.638889 Q 122.678401 58.506944 122.765207 59.461805 Q 122.852012 60.416666 123.199235 61.805555 Z M 195.421456 123.611110 Q 187.088123 123.611110 179.015206 119.791666 Q 170.942290 115.972221 164.605484 109.374999 Q 158.268679 102.777777 154.362429 93.576388 Q 150.456179 84.374999 150.456179 73.784722 Q 150.456179 66.145833 152.626318 59.809027 Q 154.796456 53.472222 158.702706 48.958333 Q 162.608956 44.444444 168.164512 41.840278 Q 173.720067 39.236111 180.490901 39.236111 Q 189.518678 39.236111 197.765206 43.229166 Q 206.011734 47.222222 212.174928 53.993055 Q 218.338123 60.763888 221.983956 69.618055 Q 225.629789 78.472222 225.629789 88.194444 Q 225.629789 96.354166 223.372845 102.951388 Q 221.115900 109.548610 217.122845 114.149305 Q 213.129789 118.749999 207.574234 121.180555 Q 202.018678 123.611110 195.421456 123.611110 Z M 205.143678 99.999999 Q 205.143678 80.381944 196.636734 61.284722 Q 193.164512 53.472222 189.605484 49.739583 Q 186.046456 46.006944 181.532567 46.006944 Q 171.289512 46.006944 171.289512 62.500000 Q 171.289512 72.395833 173.546456 82.291666 Q 175.803401 92.187499 179.970067 101.215277 Q 187.261734 116.840277 195.421456 116.840277 Q 199.761734 116.840277 202.452706 112.586805 Q 205.143678 108.333333 205.143678 99.999999 Z M 285.699233 66.666666 Q 283.963122 57.465277 283.963122 51.041666 Q 283.963122 45.659722 286.914511 42.621528 Q 289.865900 39.583333 295.421455 39.583333 Q 303.233955 39.583333 311.480483 45.052083 Q 319.727011 50.520833 326.671455 61.805555 Q 331.185344 69.097222 334.397149 75.954861 Q 337.608955 82.812499 339.605483 88.975694 Q 341.602010 95.138888 342.556872 100.086805 Q 343.511733 105.034721 343.511733 108.506944 Q 343.511733 115.104166 340.907566 118.923610 Q 338.303399 122.743055 334.483955 122.743055 Q 331.011733 122.743055 328.754788 120.052082 Q 326.497844 117.361110 326.497844 112.847221 Q 326.497844 110.243055 327.365899 107.812499 Q 328.233955 105.381944 329.275622 102.864583 Q 330.317288 100.347222 331.185344 97.656249 Q 332.053399 94.965277 332.053399 92.187499 Q 332.053399 89.756944 331.185344 85.937499 Q 330.317288 82.118055 328.581177 77.517361 Q 326.845066 72.916666 324.240899 68.055555 Q 321.636733 63.194444 318.338122 58.506944 Q 315.213122 54.166666 312.261733 52.083333 Q 309.310344 50.000000 307.053400 50.000000 Q 305.317288 50.000000 304.188816 51.822916 Q 303.060344 53.645833 303.060344 57.118055 Q 303.060344 59.201389 303.494372 62.847222 Q 303.928400 66.493055 304.970066 71.006944 L 315.560344 116.145833 Q 315.733955 116.840277 315.820761 117.274305 Q 315.907566 117.708332 315.907566 118.576388 Q 315.907566 118.923610 315.039511 119.357638 Q 314.171455 119.791666 314.171455 119.791666 L 300.108955 119.791666 Q 297.678400 119.791666 296.636733 118.229166 Q 295.595066 116.666666 294.640205 113.281249 Q 293.685344 109.895833 292.470066 104.600694 Q 291.254789 99.305555 288.477011 91.666666 Q 285.004789 82.118055 281.098539 74.826388 Q 277.192289 67.534722 273.546455 62.500000 Q 269.900622 57.465277 267.036039 54.861111 Q 264.171455 52.256944 262.956178 52.256944 Q 261.914511 52.256944 261.220067 53.038194 Q 260.525622 53.819444 260.525622 54.687500 Q 260.525622 56.076389 260.959650 58.940972 Q 261.393678 61.805555 262.261733 64.583333 L 270.942289 92.881944 Q 272.852011 98.784722 273.893678 103.298610 Q 274.935344 107.812499 274.935344 111.284721 Q 274.935344 116.840277 272.504789 119.791666 Q 270.074233 122.743055 265.213122 122.743055 Q 260.352011 122.743055 255.143678 119.704860 Q 249.935344 116.666666 245.247844 110.937499 Q 241.254789 106.249999 239.431872 102.517360 Q 237.608956 98.784722 237.608956 97.916666 Q 237.608956 95.833333 238.997845 95.833333 Q 240.213122 95.833333 241.949233 98.003472 Q 243.685344 100.173610 245.508261 102.777777 Q 247.331178 105.381944 249.327706 107.552083 Q 251.324233 109.722221 253.233956 109.722221 Q 254.102011 109.722221 254.102011 108.333333 Q 254.102011 105.208333 253.147150 101.909722 Q 252.192289 98.611110 250.977011 94.965277 L 242.817289 69.444444 Q 241.428400 64.930555 240.733956 60.763888 Q 240.039511 56.597222 240.039511 53.645833 Q 240.039511 39.409722 251.845067 39.409722 Q 261.046455 39.409722 269.553400 48.524305 Q 278.060344 57.638889 287.435344 76.041666 Z" transform="scale(0.480000,0.480000) translate(389.999999,0.000000)" fill="#000000" opacity="0.887735"></path>
        <path d="M 45.486115 119.101823 L 45.486115 93.928212 L 62.326393 93.928212 L 62.326393 70.837934 L 45.486115 70.837934 L 45.486115 38.546268 Q 45.486115 29.518490 55.034726 29.518490 Q 58.159726 29.518490 61.979171 30.386546 L 61.979171 8.511546 Q 57.118060 6.080990 48.263893 6.080990 Q 34.895837 6.080990 27.170143 13.546268 Q 19.444449 21.011546 19.444449 33.858768 L 19.444449 70.837934 L 4.166671 70.837934 L 4.166671 93.928212 L 8.506949 93.928212 Q 15.104171 93.928212 18.489588 97.834462 Q 21.875004 101.740712 21.875004 107.990712 L 21.875004 119.101823 Z M 75.000004 31.428212 Q 75.000004 42.365712 82.118059 49.049740 Q 89.236115 55.733768 100.520837 57.469879 L 120.833337 60.594879 Q 127.083337 61.462934 127.083337 66.497656 Q 127.083337 70.490712 123.697920 73.181684 Q 120.312503 75.872656 114.409726 75.872656 Q 107.812504 75.872656 103.906254 72.140017 Q 100.000004 68.407379 99.652781 63.199045 L 76.736115 67.886545 Q 77.604170 78.650434 87.413198 87.591406 Q 97.222226 96.532378 114.583337 96.532378 Q 134.201392 96.532378 143.489587 87.157378 Q 152.777781 77.782378 152.777781 63.199045 L 152.777781 21.011546 Q 152.777781 12.851823 153.819448 7.643490 L 130.034726 7.643490 Q 129.166670 11.115712 129.166670 17.365712 Q 121.701392 5.212935 104.861115 5.212935 Q 91.145837 5.212935 83.072920 12.938629 Q 75.000004 20.664323 75.000004 31.428212 Z M 111.284726 24.310157 Q 118.055559 24.310157 122.569448 28.303212 Q 127.083337 32.296268 127.083337 41.497657 L 127.083337 45.317101 L 110.763892 42.712934 Q 101.041670 41.150434 101.041670 33.164323 Q 101.041670 29.518490 103.559031 26.914323 Q 106.076392 24.310157 111.284726 24.310157 Z M 167.881948 32.122657 L 190.277781 36.115712 Q 190.625003 31.254601 194.010420 27.869184 Q 197.395836 24.483768 203.819447 24.483768 Q 208.680558 24.483768 211.284725 26.653907 Q 213.888892 28.824046 213.888892 31.949045 Q 213.888892 37.157379 205.381947 39.067101 L 195.486114 41.324045 Q 182.291670 44.101823 176.041670 51.133073 Q 169.791670 58.164323 169.791670 67.886545 Q 169.791670 79.865712 179.253475 88.199045 Q 188.715281 96.532378 202.951392 96.532378 Q 219.791669 96.532378 228.211808 88.459462 Q 236.631947 80.386545 237.500003 70.837934 L 215.625003 66.844879 Q 215.104169 71.532379 212.065975 74.483767 Q 209.027781 77.435156 203.298614 77.435156 Q 199.479170 77.435156 196.701392 75.351823 Q 193.923614 73.268490 193.923614 69.969879 Q 193.923614 64.761545 200.694447 63.546267 L 212.152781 61.289323 Q 225.173614 58.685156 231.944447 51.393490 Q 238.715280 44.101823 238.715280 34.205990 Q 238.715280 22.226823 229.687503 13.633073 Q 220.659725 5.039323 204.340281 5.039323 Q 194.791670 5.039323 187.413197 7.817101 Q 180.034725 10.594879 176.128475 15.021962 Q 172.222225 19.449046 170.225698 23.789323 Q 168.229170 28.129601 167.881948 32.122657 Z M 287.500002 119.101823 L 287.500002 93.928212 L 304.340280 93.928212 L 304.340280 70.837934 L 287.500002 70.837934 L 287.500002 38.546268 Q 287.500002 29.518490 297.048613 29.518490 Q 300.173613 29.518490 303.993058 30.386546 L 303.993058 8.511546 Q 299.131947 6.080990 290.277780 6.080990 Q 276.909725 6.080990 269.184030 13.546268 Q 261.458336 21.011546 261.458336 33.858768 L 261.458336 70.837934 L 246.180558 70.837934 L 246.180558 93.928212 L 250.520836 93.928212 Q 257.118058 93.928212 260.503475 97.834462 Q 263.888891 101.740712 263.888891 107.990712 L 263.888891 119.101823 Z M 342.187502 61.115712 L 376.736113 61.115712 Q 376.388890 67.018490 372.135418 71.358767 Q 367.881946 75.699045 359.375002 75.699045 Q 351.736113 75.699045 347.222224 71.185156 Q 342.708335 66.671267 342.187502 61.115712 Z M 378.645835 38.719879 L 400.694446 32.469879 Q 397.395835 20.490712 386.979168 12.765018 Q 376.562502 5.039323 360.937502 5.039323 Q 342.187502 5.039323 329.079863 17.539323 Q 315.972224 30.039323 315.972224 51.046268 Q 315.972224 71.185156 328.732641 83.858767 Q 341.493057 96.532378 359.027779 96.532378 Q 379.166668 96.532378 390.711807 84.813628 Q 402.256946 73.094879 402.256946 52.261545 Q 402.256946 45.664323 401.736112 44.101823 L 341.666668 44.101823 Q 342.013891 36.983768 347.743057 32.209462 Q 353.472224 27.435157 361.284724 27.435157 Q 374.652779 27.435157 378.645835 38.719879 Z" transform="scale(0.480000,0.480000) translate(0.000000,33.000000)" fill="#000000" opacity="1.000000"></path>
    </g>
</svg>