<svg xmlns="http://www.w3.org/2000/svg" viewBox="0 0 348.56 24.52"><title>Asset 35</title><g id="Layer_2" data-name="Layer 2"><g id="Layer_1-2" data-name="Layer 1"><path d="M5,2.74H4.7L7,3.37l-.19-.1L9,7.15V7l-3.3,4.34-1,.06H4.55A11,11,0,0,0,5.63,12c.67.37,1.33.78,2,1.2a34.23,34.23,0,0,1,2.87,2.1c2.28,1.84,4.51,3.77,7,5.41a19.59,19.59,0,0,0,8.71,3.64c3.47.4,6.53-.84,9.66-2.16,5.57-2.35,10.72-5.49,16.14-8.15,5-2.43,10.6-4.46,16.23-3.59a18.72,18.72,0,0,1,3.49,1c.86.31.33.13.14.05l.95.42,2.06.94c2.37,1.12,4.71,2.3,7.07,3.44a100.55,100.55,0,0,0,17,6.68c6.35,1.76,12.9,2.47,19-.35,5.15-2.36,9.88-5.5,14.83-8.24a66,66,0,0,1,7.71-3.73c2.64-1,5.45-2,8.3-1.61,5.2.71,10.1,4.07,14.58,6.6,5.15,2.91,10.57,5.36,16.47,6.21,6.61,1,12.66-.13,18.86-2.45,10.39-3.88,22.2-10.14,33.38-7.33,5.4,1.36,9.92,4.29,15.06,6.52a32.6,32.6,0,0,0,19.49,2.3c11.38-2.09,21.12-10.45,32.86-9.79,5.86.33,11.54,3,17,5.28A68.81,68.81,0,0,0,334,21.13a63.51,63.51,0,0,0,10,.54,4.5,4.5,0,0,0,0-9,58.19,58.19,0,0,1-18.27-2.4c-5.86-1.75-11.29-4.66-17.13-6.47a36.18,36.18,0,0,0-19.55-.65c-5.82,1.45-11.32,4.31-16.84,6.6-5,2.06-10.53,3.54-15.7,2.56s-9.59-4-14.48-6.14c-6.22-2.77-12.63-4.3-19.48-3.49a73.93,73.93,0,0,0-18.35,4.88c-5,2-10,4.4-15.36,5.44s-11.05-.22-15.91-2.46C167.93,8.2,163.33,5,158.2,2.8,154.86,1.37,151.5.08,147.81,0a24.77,24.77,0,0,0-9.45,1.87,112.83,112.83,0,0,0-16.42,8.39c-2.47,1.45-5,2.86-7.52,4.11l-1,.49s-.65.27-.22.11-.41.13-.51.16a8.36,8.36,0,0,1-1,.27,14.83,14.83,0,0,1-4.29.12,39.37,39.37,0,0,1-8.47-1.92,75.47,75.47,0,0,1-7.72-2.85c-4.86-2.13-9.53-4.67-14.38-6.81a27.63,27.63,0,0,0-9.62-2.57A32.46,32.46,0,0,0,57.05,2.45C51.23,4,45.87,7,40.62,9.84c-2.71,1.47-5.44,2.92-8.28,4.13-2.56,1.09-4.32,1.76-6.43,1.23-.17,0-.85-.34-.08,0-.3-.13-.6-.3-.88-.45-.62-.33-1.22-.68-1.81-1s-1.24-.8-1.85-1.22-1-.7-1.36-1c-2.29-1.81-4.49-3.74-6.88-5.42C10.3,4.13,6.83,1.72,3.33,2.69A4.65,4.65,0,0,0,0,7v.12A4.39,4.39,0,0,0,2.24,11a5.3,5.3,0,0,0,2.78.7,4.6,4.6,0,0,0,4.5-4.5A4.55,4.55,0,0,0,5,2.74Z"/></g></g></svg>