<?xml version="1.0" encoding="UTF-8"?>
<svg width="150px" height="150px" viewBox="0 0 150 150" version="1.1" xmlns="http://www.w3.org/2000/svg" xmlns:xlink="http://www.w3.org/1999/xlink">
    <!-- Generator: Sketch 51.3 (57544) - http://www.bohemiancoding.com/sketch -->
    <title>Group</title>
    <desc>Created with Sketch.</desc>
    <defs></defs>
    <g id="Page-1" stroke="none" stroke-width="1" fill="none" fill-rule="evenodd">
        <polygon id="Star" fill="#176ACC" points="75 133.489118 58.31093 148.119593 49.6225227 127.696875 28.2382649 133.637361 29.2713659 111.467369 7.42733491 107.54128 17.977326 88.0150532 0 75 17.977326 61.9849468 7.42733491 42.4587196 29.2713659 38.5326312 28.2382649 16.3626388 49.6225227 22.3031253 58.31093 1.88040659 75 16.5108817 91.68907 1.88040659 100.377477 22.3031253 121.761735 16.3626388 120.728634 38.5326312 142.572665 42.4587196 132.022674 61.9849468 150 75 132.022674 88.0150532 142.572665 107.54128 120.728634 111.467369 121.761735 133.637361 100.377477 127.696875 91.68907 148.119593"></polygon>
        <path d="M68.5704599,93.1563472 L87.7116203,37.566381 L101.024484,42.1503676 L81.8833236,97.7403338 L81.9760095,97.7722481 L77.5289863,110.687341 L77.4363004,110.655427 L77.4213792,110.698761 L64.1085155,106.114775 L64.1234367,106.07144 L42.3052328,98.5588302 L46.752256,85.6437372 L68.5704599,93.1563472 Z" id="Combined-Shape" fill="#FFFFFF" transform="translate(71.664858, 74.132571) rotate(19.000000) translate(-71.664858, -74.132571) "></path>
    </g>
</svg>