<svg width="276" height="44" viewBox="0 0 276 44" fill="none" xmlns="http://www.w3.org/2000/svg">
<path d="M0.54 42H18.18C28.14 42 34.14 37.86 34.14 31.08C34.14 24.9 28.68 21.96 21.66 20.7V20.64C27.78 19.44 32.88 16.38 32.88 10.68C32.88 3.78 26.52 0.959999 17.34 0.959999H0.54V1.98H2.04C4.8 1.98 5.88 3 5.88 5.58V37.38C5.88 40.02 4.8 40.98 2.04 40.98H0.54V42ZM12.6 20.34V5.52C12.6 2.82 13.5 1.98 16.26 1.98H17.22C22.86 1.98 25.74 5.34 25.74 11.1C25.74 16.8 23.04 20.34 17.04 20.34H12.6ZM16.38 40.98C13.68 40.98 12.6 40.08 12.6 37.44V21.42H17.76C24.42 21.42 27 25.5 27 31.26C27 36.6 24.6 40.98 18.24 40.98H16.38ZM36.758 42H50.858V41.04H49.478C46.838 41.04 46.238 40.2 46.238 37.68V30.24C46.238 24 50.198 17.4 54.038 17.4C54.638 17.4 55.058 17.58 55.058 17.88C55.058 18.18 54.818 18.36 54.398 18.6C53.738 19.08 53.018 19.92 53.018 21.24C53.018 22.98 54.218 24.12 56.078 24.12C58.118 24.12 59.498 22.5 59.498 20.22C59.498 17.46 57.458 15.84 54.638 15.84C50.618 15.84 47.558 20.04 45.758 25.56H45.638L46.178 16.14L36.758 16.68V17.58H37.058C39.698 17.58 40.298 18.54 40.298 20.94V37.68C40.298 40.08 39.698 41.04 37.058 41.04H36.758V42ZM72.5667 42.9C78.8067 42.9 84.9867 37.02 84.9867 29.16C84.9867 21.3 78.9267 15.72 72.6867 15.72C66.3867 15.72 60.2067 21.42 60.2067 29.28C60.2067 37.14 66.3267 42.9 72.5667 42.9ZM72.6867 41.94C68.3667 41.94 66.9267 36.36 66.9267 29.22C66.9267 22.08 68.3067 16.68 72.5667 16.68C76.7667 16.68 78.2667 22.2 78.2667 29.34C78.2667 36.48 76.9467 41.94 72.6867 41.94ZM94.5872 42.66C98.7272 42.66 102.267 39.84 103.527 36.6H103.647C103.407 40.68 105.987 42.48 108.507 42.48C111.327 42.48 113.067 41.46 113.787 37.92L113.067 37.62C112.767 39.18 112.107 40.38 111.027 40.38C110.187 40.38 109.467 39.6 109.467 37.62V25.02C109.467 18 105.267 15.84 99.6272 15.84C92.6672 15.84 89.4872 18.96 89.4872 22.38C89.4872 24.24 90.7472 25.62 92.6072 25.62C94.3472 25.62 95.6672 24.3 95.6672 22.62C95.6672 20.88 94.3472 19.74 92.9072 19.74C92.3672 19.74 92.1272 19.74 92.1272 19.32C92.1272 18.42 94.8872 16.86 98.1272 16.86C101.907 16.86 103.647 19.2 103.647 24.96V26.58C91.8272 29.16 87.8672 32.16 87.8672 36.78C87.8672 40.62 90.7472 42.66 94.5872 42.66ZM97.5872 39.78C95.4272 39.78 94.1672 38.22 94.1672 35.7C94.1672 32.4 95.8472 29.22 103.647 27.6V31.74C103.647 37.2 100.107 39.78 97.5872 39.78ZM124.842 42.54C128.862 42.54 131.442 40.02 133.362 36.24H133.482L133.182 42.66L142.542 41.76V40.8H142.122C139.482 40.8 138.942 40.02 138.942 37.32V0.0599964L128.442 0.959999V1.92H129.882C132.522 1.98 133.182 2.64 133.182 5.34V14.7C133.182 16.56 133.302 20.88 133.362 21.72H133.242C131.742 18.48 128.982 15.96 125.082 15.96C119.142 15.96 114.762 21.66 114.762 29.22C114.762 37.2 119.682 42.54 124.842 42.54ZM126.522 40.86C122.982 40.86 121.422 36 121.422 29.04C121.422 22.56 122.502 17.4 126.522 17.4C129.462 17.4 133.362 21.78 133.362 29.46C133.362 35.52 129.942 40.86 126.522 40.86ZM154.743 43.02H156.303L163.023 26.16L168.843 43.02H170.463L178.503 21.48C179.283 19.32 180.243 17.76 182.643 17.58V16.68H173.943V17.58C176.163 17.76 177.123 18.42 177.123 19.8C177.123 20.94 176.763 22.26 176.223 23.82L172.023 35.58L167.703 22.26C167.283 20.88 167.103 20.16 167.103 19.38C167.163 18.42 168.123 17.76 170.223 17.58V16.68H157.563V17.58C159.903 17.88 160.623 18.9 161.223 20.76L162.363 24.3C162.423 24.3 157.923 35.82 157.923 35.82L153.123 22.26C152.643 20.88 152.523 20.16 152.523 19.38C152.523 18.42 153.303 17.76 155.283 17.58V16.68H142.203V17.58C144.603 17.76 145.623 19.14 146.523 21.48L154.743 43.02ZM189.181 11.22C191.341 11.22 193.081 9.42 193.081 7.32C193.081 5.22 191.341 3.42 189.181 3.42C187.081 3.42 185.281 5.22 185.281 7.32C185.281 9.42 187.081 11.22 189.181 11.22ZM183.181 42H196.201V41.04H195.841C193.201 41.04 192.601 40.14 192.601 37.62V16.08L183.181 16.68V17.58H183.541C186.181 17.58 186.781 18.54 186.781 21V37.62C186.781 40.2 186.181 41.04 183.541 41.04H183.181V42ZM197.656 42H211.756V41.04H210.376C207.736 41.04 207.136 40.2 207.136 37.68V30.24C207.136 24 211.096 17.4 214.936 17.4C215.536 17.4 215.956 17.58 215.956 17.88C215.956 18.18 215.716 18.36 215.296 18.6C214.636 19.08 213.916 19.92 213.916 21.24C213.916 22.98 215.116 24.12 216.976 24.12C219.016 24.12 220.396 22.5 220.396 20.22C220.396 17.46 218.356 15.84 215.536 15.84C211.516 15.84 208.456 20.04 206.656 25.56H206.536L207.076 16.14L197.656 16.68V17.58H197.956C200.596 17.58 201.196 18.54 201.196 20.94V37.68C201.196 40.08 200.596 41.04 197.956 41.04H197.656V42ZM233.285 42.9C238.805 42.9 242.405 39.84 244.805 35.7L243.965 35.22C241.865 38.52 239.165 40.68 234.965 40.68C230.045 40.68 227.645 36.42 227.585 29.46H244.385C244.445 29.16 244.505 28.02 244.505 27.72C244.505 20.04 238.925 15.72 233.465 15.72C227.165 15.72 221.105 21.3 221.105 29.4C221.105 37.74 226.325 42.9 233.285 42.9ZM227.585 28.38C227.705 21.06 229.625 16.68 233.285 16.68C236.645 16.68 238.085 20.58 238.085 25.38C238.085 27.48 237.425 28.38 235.025 28.38H227.585ZM257.557 42.54C261.577 42.54 264.157 40.02 266.077 36.24H266.197L265.897 42.66L275.257 41.76V40.8H274.837C272.197 40.8 271.657 40.02 271.657 37.32V0.0599964L261.157 0.959999V1.92H262.597C265.237 1.98 265.897 2.64 265.897 5.34V14.7C265.897 16.56 266.017 20.88 266.077 21.72H265.957C264.457 18.48 261.697 15.96 257.797 15.96C251.857 15.96 247.477 21.66 247.477 29.22C247.477 37.2 252.397 42.54 257.557 42.54ZM259.237 40.86C255.697 40.86 254.137 36 254.137 29.04C254.137 22.56 255.217 17.4 259.237 17.4C262.177 17.4 266.077 21.78 266.077 29.46C266.077 35.52 262.657 40.86 259.237 40.86Z" fill="black"/>
</svg>
