<svg width="675" height="805" viewBox="0 0 675 805" fill="none" xmlns="http://www.w3.org/2000/svg">
<mask id="mask0" mask-type="alpha" maskUnits="userSpaceOnUse" x="0" y="0" width="675" height="805">
<rect width="675" height="805" fill="#C4C4C4"/>
</mask>
<g mask="url(#mask0)">
<rect x="-3" y="158.747" width="84.5474" height="107.372" rx="8" transform="rotate(-44.8542 -3 158.747)" fill="#F0F0F0"/>
<rect x="115.02" y="238" width="84.5474" height="107.372" rx="8" transform="rotate(10.2089 115.02 238)" fill="#F0F0F0"/>
<rect x="286.988" y="242" width="84.5474" height="107.372" rx="8" transform="rotate(37.1095 286.988 242)" fill="#F0F0F0"/>
<rect x="458.898" y="195.667" width="84.5474" height="107.372" rx="8" transform="rotate(60.0601 458.898 195.667)" fill="#F0F0F0"/>
<rect x="440.193" y="375" width="84.5474" height="107.372" rx="8" transform="rotate(86.7935 440.193 375)" fill="#F0F0F0"/>
<rect x="414.934" y="507.364" width="84.5474" height="107.372" rx="8" transform="rotate(18.0963 414.934 507.364)" fill="#F0F0F0"/>
<rect x="625.715" y="150.098" width="84.5474" height="107.372" rx="8" transform="rotate(93.7904 625.715 150.098)" fill="#F0F0F0"/>
<rect x="599.348" y="485.906" width="84.5474" height="107.372" rx="8" transform="rotate(151.056 599.348 485.906)" fill="#F0F0F0"/>
<rect x="202.859" y="386.626" width="67.7759" height="171.089" rx="8" transform="rotate(73.2958 202.859 386.626)" fill="#F0F0F0"/>
<rect x="678.496" y="356.367" width="67.7759" height="171.089" rx="8" transform="rotate(121.098 678.496 356.367)" fill="#F0F0F0"/>
<rect x="408.828" y="179.955" width="67.7759" height="171.089" rx="8" transform="rotate(-170.46 408.828 179.955)" fill="#F0F0F0"/>
<rect x="312.367" y="184.898" width="84.755" height="127.768" rx="8" transform="rotate(151.885 312.367 184.898)" fill="#F0F0F0"/>
<rect x="354.645" y="557.995" width="84.755" height="127.768" rx="8" transform="rotate(146.056 354.645 557.995)" fill="#F0F0F0"/>
<rect x="594.488" y="786.5" width="84.755" height="127.768" rx="8" transform="rotate(165.172 594.488 786.5)" fill="#F0F0F0"/>
<rect x="659.955" y="562.902" width="84.5474" height="107.372" rx="8" transform="rotate(99.598 659.955 562.902)" fill="#F0F0F0"/>
<rect x="406.32" y="652.5" width="84.5474" height="107.372" rx="8" transform="rotate(53.5184 406.32 652.5)" fill="#F0F0F0"/>
<rect x="212.758" y="630" width="84.5474" height="107.372" rx="8" transform="rotate(7.36791 212.758 630)" fill="#F0F0F0"/>
<rect x="142.738" y="520" width="84.5474" height="107.372" rx="8" transform="rotate(36.1604 142.738 520)" fill="#F0F0F0"/>
</g>
</svg>
