<?xml version="1.0" standalone="no"?>
<!DOCTYPE svg PUBLIC "-//W3C//DTD SVG 20010904//EN"
 "http://www.w3.org/TR/2001/REC-SVG-20010904/DTD/svg10.dtd">
<svg version="1.0" xmlns="http://www.w3.org/2000/svg"
 width="160.000000pt" height="160.000000pt" viewBox="0 0 160.000000 160.000000"
 preserveAspectRatio="xMidYMid meet">
<metadata>
Created by potrace 1.11, written by Peter Selinger 2001-2013
</metadata>
<g transform="translate(0.000000,160.000000) scale(0.100000,-0.100000)"
fill="#000000" stroke="none">
<path d="M688 1505 c-2 -2 -26 -5 -55 -9 -69 -8 -80 -13 -87 -42 -4 -13 -11
-24 -16 -24 -5 0 -19 -10 -30 -22 -23 -24 -21 -75 2 -89 9 -6 9 -11 -1 -23 -7
-8 -10 -20 -6 -26 3 -5 3 -10 -2 -11 -4 0 -19 -3 -33 -6 -14 -3 -79 -6 -145
-8 -66 -2 -147 -6 -180 -9 -33 -3 -65 -5 -71 -5 -13 -1 -31 -41 -40 -91 -11
-62 -12 -279 -1 -328 5 -26 11 -182 12 -347 1 -165 5 -311 10 -325 18 -59 -24
-56 745 -55 388 0 715 4 727 8 12 4 26 21 32 37 6 17 10 149 11 317 0 191 5
309 13 349 27 130 6 405 -32 428 -17 11 -117 18 -254 18 -70 0 -130 4 -132 9
-3 4 -15 6 -26 4 -30 -6 -46 41 -25 77 20 33 9 69 -29 94 -14 9 -25 24 -25 34
0 20 -11 25 -75 36 -37 6 -282 14 -287 9z m-143 -124 c-3 -6 -11 -11 -17 -11
-6 0 -6 6 2 15 14 17 26 13 15 -4z m525 -1 c0 -5 -6 -12 -12 -16 -7 -4 -10 -4
-6 1 4 4 3 14 -4 22 -8 11 -7 12 6 7 9 -3 16 -10 16 -14z m-115 -23 c63 -12
86 -20 94 -35 10 -19 -3 -61 -19 -63 -14 -2 -22 -5 -43 -13 -9 -5 -32 -5 -50
-2 -17 4 -81 6 -142 6 -235 -3 -236 -3 -248 34 -11 32 5 54 44 61 13 3 37 9
54 13 28 8 268 7 310 -1z"/>
</g>
</svg>
