<?xml version="1.0" encoding="UTF-8" standalone="yes"?>
<!DOCTYPE svg PUBLIC "-//W3C//DTD SVG 1.1//EN" "http://www.w3.org/Graphics/SVG/1.1/DTD/svg11.dtd">

<svg width="420" height="84" viewBox="0 0 420 84" xmlns="http://www.w3.org/2000/svg" xmlns:xlink="http://www.w3.org/1999/xlink" version="1.1" baseProfile="full">
    <defs>
        <linearGradient id="8754864" x1="0%" x2="100%" y1="102%" y2="102%">
            <stop offset="0%" style="stop-color:#ff6600;stop-opacity:1.000000"></stop>
            <stop offset="20%" style="stop-color:#f5d61e;stop-opacity:1.000000"></stop>
            <stop offset="40%" style="stop-color:#187e08;stop-opacity:1.000000"></stop>
            <stop offset="60%" style="stop-color:#0ebdc8;stop-opacity:1.000000"></stop>
            <stop offset="80%" style="stop-color:#2039ee;stop-opacity:1.000000"></stop>
            <stop offset="100%" style="stop-color:#3d2ac5;stop-opacity:1.000000"></stop>
        </linearGradient>
    </defs>
    <g transform="scale(1,-1) translate(0,-84)">
        <path d="M 5.500000 79.916669 L 5.500000 19.750000 L 3.750000 21.500000 L 28.250001 21.500000 L 26.500001 19.750000 L 26.500001 79.916669 L 28.250001 78.166669 L 3.750000 78.166669 L 5.500000 79.916669 Z M 2.000000 79.916669 C 2.000000 80.883167 2.783502 81.666669 3.750000 81.666669 L 28.250001 81.666669 C 29.216499 81.666669 30.000001 80.883167 30.000001 79.916669 L 30.000001 19.750000 C 30.000001 18.783502 29.216499 18.000000 28.250001 18.000000 L 3.750000 18.000000 C 2.783502 18.000000 2.000000 18.783502 2.000000 19.750000 L 2.000000 79.916669 Z M 16.083334 40.666668 C 16.083334 26.070732 26.266846 19.916667 47.583335 19.916667 C 68.899825 19.916667 79.083336 26.070732 79.083336 40.666668 C 79.083336 55.262604 68.899825 61.416668 47.583335 61.416668 C 26.266846 61.416668 16.083334 55.262604 16.083334 40.666668 Z M 12.583334 40.666668 C 12.583334 57.664258 24.584347 64.916668 47.583335 64.916668 C 70.582323 64.916668 82.583336 57.664258 82.583336 40.666668 C 82.583336 23.669078 70.582323 16.416667 47.583335 16.416667 C 24.584347 16.416667 12.583334 23.669078 12.583334 40.666668 Z M 37.916668 40.666668 C 37.916668 48.890754 40.997589 54.250001 47.583335 54.250001 C 54.169082 54.250001 57.250002 48.890754 57.250002 40.666668 C 57.250002 32.442582 54.169082 27.083334 47.583335 27.083334 C 40.997589 27.083334 37.916668 32.442582 37.916668 40.666668 Z M 41.416668 40.666668 C 41.416668 34.119745 43.449678 30.583334 47.583335 30.583334 C 51.716993 30.583334 53.750002 34.119745 53.750002 40.666668 C 53.750002 47.213590 51.716993 50.750001 47.583335 50.750001 C 43.449678 50.750001 41.416668 47.213590 41.416668 40.666668 Z M 129.583339 59.833335 L 105.083338 59.833335 L 106.833338 61.583335 L 106.833338 40.750001 C 106.833338 33.216691 103.649883 29.083334 97.083338 29.083334 C 91.534779 29.083334 88.666671 32.398762 88.666671 39.166668 L 88.666671 61.583335 L 90.416671 59.833335 L 65.916670 59.833335 L 67.666670 61.583335 L 67.666670 36.583334 C 67.666670 29.923216 70.022890 25.536488 74.242665 22.888580 C 77.528286 20.826853 81.797081 19.916667 86.333337 19.916667 C 94.344247 19.916667 100.341705 22.701201 103.966897 28.063463 C 104.292359 28.544877 104.835565 28.833334 105.416671 28.833334 L 105.583338 28.833334 C 106.518937 28.833334 107.289050 28.097432 107.331533 27.162797 L 107.664866 19.829464 L 105.916671 21.500000 L 130.083339 21.500000 L 128.338655 19.613697 C 127.965565 24.389243 127.833339 29.357191 127.833339 36.166668 L 127.833339 61.583335 L 129.583339 59.833335 Z M 129.583339 63.333335 C 130.549837 63.333335 131.333339 62.549833 131.333339 61.583335 L 131.333339 36.166668 C 131.333339 29.440429 131.463415 24.553281 131.828022 19.886304 C 131.907485 18.869181 131.103561 18.000000 130.083339 18.000000 L 105.916671 18.000000 C 104.981072 18.000000 104.210960 18.735903 104.168476 19.670537 L 103.835143 27.003871 L 105.583338 27.083334 L 105.583338 25.333334 L 105.416671 25.333334 L 105.416671 27.083334 L 106.866446 26.103205 C 102.547355 19.714550 95.444223 16.416667 86.333337 16.416667 C 81.196694 16.416667 76.311728 17.458231 72.382342 19.923921 C 67.128200 23.220896 64.166670 28.734568 64.166670 36.583334 L 64.166670 61.583335 C 64.166670 62.549833 64.950172 63.333335 65.916670 63.333335 L 90.416671 63.333335 C 91.383169 63.333335 92.166671 62.549833 92.166671 61.583335 L 92.166671 39.166668 C 92.166671 34.228152 93.589568 32.583334 97.083338 32.583334 C 101.487807 32.583334 103.333338 34.979548 103.333338 40.750001 L 103.333338 61.583335 C 103.333338 62.549833 104.116840 63.333335 105.083338 63.333335 L 129.583339 63.333335 Z M 140.750006 40.666668 C 140.750006 48.772649 143.964546 53.750001 150.583340 53.750001 C 156.711180 53.750001 160.500007 48.389512 160.500007 40.666668 C 160.500007 32.627355 157.733141 27.583334 150.666673 27.583334 C 143.535476 27.583334 140.750006 32.616726 140.750006 40.666668 Z M 144.250006 40.666668 C 144.250006 34.292633 146.026026 31.083334 150.666673 31.083334 C 155.233701 31.083334 157.000007 34.303326 157.000007 40.666668 C 157.000007 46.664811 154.465972 50.250001 150.583340 50.250001 C 146.299355 50.250001 144.250006 47.076816 144.250006 40.666668 Z M 159.583340 21.500000 L 182.750008 21.500000 L 181.000008 19.750000 L 181.000008 79.916669 L 182.750008 78.166669 L 158.250007 78.166669 L 160.000007 79.916669 L 160.000007 56.500002 C 160.000007 54.925807 158.083746 54.152035 156.990674 55.284856 C 153.099624 59.317398 147.046388 61.416668 140.333340 61.416668 C 126.482383 61.416668 118.916672 54.050580 118.916672 40.500001 C 118.916672 27.143867 126.862599 19.916667 141.416673 19.916667 C 148.198688 19.916667 153.030998 21.839199 158.012570 26.820771 C 159.081272 27.889472 160.910933 27.192082 160.997157 25.683171 L 161.330490 19.849838 L 159.583340 21.500000 Z M 159.583340 18.000000 C 158.655625 18.000000 157.889116 18.723959 157.836190 19.650163 L 157.502857 25.483497 L 160.487444 24.345897 C 154.836575 18.695028 149.109883 16.416667 141.416673 16.416667 C 124.999752 16.416667 115.416672 25.132935 115.416672 40.500001 C 115.416672 56.004832 124.570022 64.916668 140.333340 64.916668 C 147.926927 64.916668 154.890868 62.501564 159.509340 57.715148 L 156.500007 56.500002 L 156.500007 79.916669 C 156.500007 80.883167 157.283509 81.666669 158.250007 81.666669 L 182.750008 81.666669 C 183.716506 81.666669 184.500008 80.883167 184.500008 79.916669 L 184.500008 19.750000 C 184.500008 18.783502 183.716506 18.000000 182.750008 18.000000 L 159.583340 18.000000 Z M 169.250008 5.500000 L 193.750009 5.500000 L 192.000009 3.750000 L 192.000009 24.666667 C 192.000009 26.207864 193.848117 26.996509 194.960843 25.930147 C 198.957184 22.100320 204.495722 19.916667 211.166676 19.916667 C 225.085164 19.916667 233.583343 27.156621 233.583343 40.166668 C 233.583343 54.638156 226.038898 61.416668 212.000009 61.416668 C 203.930014 61.416668 198.577698 58.666686 194.851400 53.331305 C 194.524047 52.862594 193.988384 52.583335 193.416675 52.583335 L 193.250009 52.583335 C 192.314763 52.583335 191.544810 53.318701 191.501855 54.252960 L 191.168522 61.502960 L 192.916675 59.833335 L 168.750008 59.833335 L 170.496377 61.696004 C 170.809916 56.836158 171.000008 50.515590 171.000008 45.750001 L 171.000008 3.750000 L 169.250008 5.500000 Z M 169.250008 2.000000 C 168.283510 2.000000 167.500008 2.783502 167.500008 3.750000 L 167.500008 45.750001 C 167.500008 50.442746 167.312166 56.688493 167.003639 61.470666 C 166.938559 62.479397 167.739180 63.333335 168.750008 63.333335 L 192.916675 63.333335 C 193.851922 63.333335 194.621874 62.597969 194.664829 61.663710 L 194.998162 54.413710 L 193.250009 54.333335 L 193.250009 56.083335 L 193.416675 56.083335 L 193.416675 54.333335 L 191.981951 55.335365 C 196.367456 61.614612 202.794278 64.916668 212.000009 64.916668 C 227.893325 64.916668 237.083343 56.659647 237.083343 40.166668 C 237.083343 25.088122 226.904884 16.416667 211.166676 16.416667 C 203.601266 16.416667 197.193086 18.943190 192.539174 23.403188 L 195.500009 24.666667 L 195.500009 3.750000 C 195.500009 2.783502 194.716507 2.000000 193.750009 2.000000 L 169.250008 2.000000 Z M 192.000009 40.666668 C 192.000009 48.389512 195.788836 53.750001 201.916676 53.750001 C 208.535469 53.750001 211.750009 48.772649 211.750009 40.666668 C 211.750009 32.616726 208.964540 27.583334 201.833342 27.583334 C 194.766874 27.583334 192.000009 32.627355 192.000009 40.666668 Z M 195.500009 40.666668 C 195.500009 34.303326 197.266315 31.083334 201.833342 31.083334 C 206.473990 31.083334 208.250009 34.292633 208.250009 40.666668 C 208.250009 47.076816 206.200660 50.250001 201.916676 50.250001 C 198.034044 50.250001 195.500009 46.664811 195.500009 40.666668 Z M 240.522339 49.778658 C 241.172157 53.807532 244.251185 56.083335 250.083345 56.083335 C 255.946052 56.083335 259.000011 52.715417 259.000011 47.666668 L 259.000011 45.333335 C 259.000011 44.366836 258.216510 43.583335 257.250011 43.583335 L 250.500011 43.583335 C 229.608111 43.583335 219.250010 39.887820 219.250010 30.416667 C 219.250010 26.092004 221.793021 22.936443 225.944285 21.389894 C 228.756017 20.318809 232.978504 19.916667 239.333344 19.916667 C 248.223153 19.916667 253.746737 21.880608 257.716824 26.843217 C 258.712710 28.088074 260.718698 27.461601 260.829140 25.871236 L 261.245807 19.871236 L 259.500012 21.500000 L 281.333346 21.500000 L 279.610597 19.442367 C 279.183843 21.832192 279.000012 23.609221 279.000012 25.333334 L 279.000012 45.250001 C 279.000012 56.958056 270.759836 61.416668 249.000011 61.416668 C 241.785194 61.416668 235.350963 60.576530 230.528461 58.777089 C 224.994367 56.712129 222.007856 53.636201 221.746706 49.392512 L 220.000010 51.250001 L 242.250011 51.250001 L 240.522339 49.778658 Z M 243.977683 49.221345 C 243.840913 48.373369 243.108946 47.750001 242.250011 47.750001 L 220.000010 47.750001 C 218.991236 47.750001 218.191353 48.600621 218.253315 49.607490 C 218.612636 55.446463 222.601846 59.555111 229.304894 62.056248 C 234.584472 64.026240 241.403852 64.916668 249.000011 64.916668 C 272.436175 64.916668 282.500012 59.471306 282.500012 45.250001 L 282.500012 25.333334 C 282.500012 23.835225 282.663176 22.257973 283.056094 20.057634 C 283.247635 18.985005 282.422942 18.000000 281.333346 18.000000 L 259.500012 18.000000 C 258.580564 18.000000 257.817913 18.711526 257.754216 19.628765 L 257.337549 25.628765 L 260.449865 24.656784 C 255.713948 18.736888 249.188327 16.416667 239.333344 16.416667 C 232.563184 16.416667 228.035671 16.847859 224.710352 18.114647 C 219.283671 20.136301 215.750010 24.521136 215.750010 30.416667 C 215.750010 37.123389 219.703425 41.650063 226.880709 44.210741 C 232.613182 46.255946 240.281847 47.083335 250.500011 47.083335 L 257.250011 47.083335 L 255.500011 45.333335 L 255.500011 47.666668 C 255.500011 50.854680 253.932502 52.583335 250.083345 52.583335 C 245.876288 52.583335 244.336357 51.445125 243.977683 49.221345 Z M 259.000011 37.333334 L 259.000011 36.000001 C 259.000011 29.822994 254.163192 25.250001 247.333345 25.250001 C 242.521862 25.250001 239.250011 28.003539 239.250011 31.750001 C 239.250011 36.799090 244.265418 39.083334 254.166678 39.083334 L 257.250011 39.083334 C 258.216510 39.083334 259.000011 38.299833 259.000011 37.333334 Z M 255.500011 37.333334 L 257.250011 37.333334 L 257.250011 35.583334 L 254.166678 35.583334 C 245.975546 35.583334 242.750011 34.114279 242.750011 31.750001 C 242.750011 30.083097 244.334043 28.750001 247.333345 28.750001 C 252.272729 28.750001 255.500011 31.801250 255.500011 36.000001 L 255.500011 37.333334 Z M 328.250014 49.500001 C 328.250014 58.188791 319.874087 61.416668 299.583347 61.416668 C 280.332155 61.416668 271.166679 57.149341 271.166679 48.250001 C 271.166679 44.043188 274.433241 40.888623 280.611379 39.894440 L 297.022047 37.312062 C 302.629089 36.449450 305.081048 35.949393 306.758526 35.235112 C 308.934413 34.308605 309.833347 32.884321 309.833347 30.666667 C 309.833347 26.839140 306.134489 25.250001 299.750013 25.250001 C 296.015206 25.250001 294.010175 25.522529 292.362728 26.491616 C 290.573889 27.543874 289.600272 29.106786 289.047602 31.427998 L 290.750013 30.083334 L 268.250012 30.083334 L 269.997318 31.930407 C 270.479772 23.246228 277.592926 19.916667 301.333347 19.916667 C 321.717133 19.916667 330.333348 23.811914 330.333348 31.833334 C 330.333348 38.353684 325.874297 41.009234 312.244760 43.018717 L 303.826266 44.268987 C 292.602435 45.909389 290.666680 46.735311 290.666680 50.666668 C 290.666680 54.150487 294.469003 56.083335 299.416680 56.083335 C 301.984838 56.083335 304.041203 55.732818 305.652150 54.879964 C 307.674187 53.809474 308.925254 52.103473 309.235314 49.726345 L 307.500014 51.250001 L 330.000014 51.250001 L 328.250014 49.500001 Z M 331.750014 49.500001 C 331.750014 48.533503 330.966513 47.750001 330.000014 47.750001 L 307.500014 47.750001 C 306.621012 47.750001 305.878402 48.402039 305.764713 49.273658 C 305.606023 50.490280 305.061951 51.232196 304.014543 51.786706 C 303.005844 52.320723 301.465189 52.583335 299.416680 52.583335 C 296.151242 52.583335 294.166680 51.574516 294.166680 50.666668 C 294.166680 49.453581 295.006672 49.095184 304.336427 47.731605 L 312.757095 46.481015 C 327.924137 44.244850 333.833348 40.725670 333.833348 31.833334 C 333.833348 21.119858 323.429977 16.416667 301.333347 16.416667 C 275.960130 16.416667 267.124015 20.552721 266.502707 31.736262 C 266.446979 32.739364 267.245364 33.583334 268.250012 33.583334 L 290.750013 33.583334 C 291.560369 33.583334 292.264729 33.026989 292.452424 32.238670 C 292.802392 30.768807 293.269617 30.018786 294.137298 29.508386 C 295.065609 28.962321 296.627678 28.750001 299.750013 28.750001 C 304.400021 28.750001 306.333347 29.580615 306.333347 30.666667 C 306.333347 32.095029 305.438519 32.476052 296.483913 33.853684 L 280.061313 36.437940 C 272.303842 37.686258 267.666679 42.164433 267.666679 48.250001 C 267.666679 59.812538 278.629464 64.916668 299.583347 64.916668 C 310.021419 64.916668 317.265785 64.109208 322.420975 62.122524 C 328.543023 59.763237 331.750014 55.618125 331.750014 49.500001 Z M 319.333348 68.916669 L 319.333348 61.583335 C 319.333348 60.616837 318.549846 59.833335 317.583348 59.833335 L 310.916681 59.833335 L 312.666681 61.583335 L 312.666681 49.916668 L 310.916681 51.666668 L 317.833348 51.666668 C 318.799846 51.666668 319.583348 50.883166 319.583348 49.916668 L 319.583348 35.333334 C 319.583348 23.237246 323.463868 19.916667 338.000015 19.916667 C 343.191588 19.916667 350.902296 20.706159 354.287054 21.458328 L 352.916683 19.750000 L 352.916683 30.916667 L 354.666683 30.916667 L 355.091120 29.218918 C 353.411690 28.799061 351.685879 28.583334 350.250016 28.583334 C 343.698596 28.583334 340.333349 31.609448 340.333349 37.750001 L 340.333349 49.916668 C 340.333349 50.883166 341.116851 51.666668 342.083349 51.666668 L 354.416683 51.666668 L 352.666683 49.916668 L 352.666683 61.583335 L 354.416683 59.833335 L 342.083349 59.833335 C 341.116851 59.833335 340.333349 60.616837 340.333349 61.583335 L 340.333349 76.500002 L 342.600795 74.828252 L 318.100795 67.244918 L 319.333348 68.916669 Z M 315.833348 68.916669 C 315.833348 69.683846 316.333028 70.361577 317.065902 70.588419 L 341.565902 78.171753 C 342.691834 78.520255 343.833349 77.678635 343.833349 76.500002 L 343.833349 61.583335 L 342.083349 63.333335 L 354.416683 63.333335 C 355.383181 63.333335 356.166683 62.549833 356.166683 61.583335 L 356.166683 49.916668 C 356.166683 48.950170 355.383181 48.166668 354.416683 48.166668 L 342.083349 48.166668 L 343.833349 49.916668 L 343.833349 37.750001 C 343.833349 33.630218 345.553591 32.083334 350.250016 32.083334 C 351.397486 32.083334 352.838342 32.263441 354.242245 32.614417 C 355.346752 32.890544 356.416683 32.055167 356.416683 30.916667 L 356.416683 19.750000 C 356.416683 18.929778 355.847002 18.219604 355.046311 18.041673 C 351.403379 17.232133 343.438998 16.416667 338.000015 16.416667 C 321.641390 16.416667 316.083348 21.172710 316.083348 35.333334 L 316.083348 49.916668 L 317.833348 48.166668 L 310.916681 48.166668 C 309.950183 48.166668 309.166681 48.950170 309.166681 49.916668 L 309.166681 61.583335 C 309.166681 62.549833 309.950183 63.333335 310.916681 63.333335 L 317.583348 63.333335 L 315.833348 61.583335 L 315.833348 68.916669 Z M 404.333351 37.333334 L 404.333351 39.583334 C 404.333351 54.620468 392.874642 61.416668 373.916684 61.416668 C 354.522408 61.416668 343.500016 54.382378 343.500016 40.416668 C 343.500016 26.682399 354.376324 19.916667 374.583350 19.916667 C 393.201400 19.916667 403.003858 24.962658 403.759977 32.019767 L 405.500018 30.083334 L 381.500017 30.083334 L 383.197767 31.408897 C 382.223228 27.510742 379.235820 25.250001 374.166684 25.250001 C 367.465464 25.250001 364.000017 29.434207 364.000017 37.333334 C 364.000017 38.299833 364.783518 39.083334 365.750017 39.083334 L 406.083351 39.083334 L 404.333351 37.333334 Z M 407.833351 37.333334 C 407.833351 36.366836 407.049850 35.583334 406.083351 35.583334 L 365.750017 35.583334 L 367.500017 37.333334 C 367.500017 31.236782 369.559621 28.750001 374.166684 28.750001 C 377.651119 28.750001 379.222640 29.939260 379.802268 32.257772 C 379.997028 33.036814 380.696999 33.583334 381.500017 33.583334 L 405.500018 33.583334 C 406.540294 33.583334 407.350883 32.681257 407.240059 31.646901 C 406.241234 22.324531 394.764482 16.416667 374.583350 16.416667 C 352.688874 16.416667 340.000016 24.309917 340.000016 40.416668 C 340.000016 56.729140 352.829476 64.916668 373.916684 64.916668 C 394.554657 64.916668 407.833351 57.041029 407.833351 39.583334 L 407.833351 37.333334 Z M 364.000017 45.333335 C 364.000017 51.861351 367.743509 56.083335 373.916684 56.083335 C 380.294058 56.083335 383.833351 51.940443 383.833351 45.333335 C 383.833351 44.366836 383.049849 43.583335 382.083351 43.583335 L 365.750017 43.583335 C 364.783518 43.583335 364.000017 44.366836 364.000017 45.333335 Z M 367.500017 45.333335 L 365.750017 47.083335 L 382.083351 47.083335 L 380.333351 45.333335 C 380.333351 50.118992 378.228051 52.583335 373.916684 52.583335 C 369.776525 52.583335 367.500017 50.015845 367.500017 45.333335 Z M 393.416685 79.916669 L 393.416685 19.750000 L 391.666685 21.500000 L 416.166686 21.500000 L 414.416686 19.750000 L 414.416686 79.916669 L 416.166686 78.166669 L 391.666685 78.166669 L 393.416685 79.916669 Z M 389.916685 79.916669 C 389.916685 80.883167 390.700187 81.666669 391.666685 81.666669 L 416.166686 81.666669 C 417.133184 81.666669 417.916686 80.883167 417.916686 79.916669 L 417.916686 19.750000 C 417.916686 18.783502 417.133184 18.000000 416.166686 18.000000 L 391.666685 18.000000 C 390.700187 18.000000 389.916685 18.783502 389.916685 19.750000 L 389.916685 79.916669 Z" transform="scale(1.000000,1.000000) translate(0.000000,0.000000)" fill="url(#8754864)" opacity="1.000000"></path>
    </g>
</svg>