<?xml version="1.0" encoding="UTF-8"?>
<svg width="350px" height="350px" viewBox="0 0 350 350" version="1.1" xmlns="http://www.w3.org/2000/svg" xmlns:xlink="http://www.w3.org/1999/xlink">
    <!-- Generator: Sketch 51.3 (57544) - http://www.bohemiancoding.com/sketch -->
    <title>Group 6</title>
    <desc>Created with Sketch.</desc>
    <defs></defs>
    <g id="Page-1" stroke="none" stroke-width="1" fill="none" fill-rule="evenodd">
        <g id="Group-6" fill="#FFD000">
            <circle id="Oval-7" cx="175" cy="175" r="75"></circle>
            <rect id="Rectangle-10" x="163" y="0" width="25" height="75" rx="12.5"></rect>
            <rect id="Rectangle-10" x="163" y="275" width="25" height="75" rx="12.5"></rect>
            <rect id="Rectangle-10" transform="translate(312.500000, 175.500000) rotate(90.000000) translate(-312.500000, -175.500000) " x="300" y="138" width="25" height="75" rx="12.5"></rect>
            <rect id="Rectangle-10" transform="translate(275.355339, 75.355339) rotate(45.000000) translate(-275.355339, -75.355339) " x="262.855339" y="37.8553391" width="25" height="75" rx="12.5"></rect>
            <path d="M250.628157,248.483496 L250.628157,248.483496 C255.50971,243.601942 263.424273,243.601942 268.305826,248.483496 L303.661165,283.838835 C308.542719,288.720388 308.542719,296.634951 303.661165,301.516504 L303.661165,301.516504 C298.779612,306.398058 290.865049,306.398058 285.983496,301.516504 L250.628157,266.161165 C245.746603,261.279612 245.746603,253.365049 250.628157,248.483496 Z" id="Rectangle-10"></path>
            <path d="M46.8388348,46.4834957 L46.8388348,46.4834957 C51.7203884,41.6019421 59.6349506,41.6019421 64.5165043,46.4834957 L99.8718434,81.8388348 C104.753397,86.7203884 104.753397,94.6349506 99.8718434,99.5165043 L99.8718434,99.5165043 C94.9902897,104.398058 87.0757275,104.398058 82.1941738,99.5165043 L46.8388348,64.1611652 C41.9572811,59.2796116 41.9572811,51.3650494 46.8388348,46.4834957 Z" id="Rectangle-10"></path>
            <path d="M99.8718434,250.838835 L99.8718434,250.838835 C104.753397,255.720388 104.753397,263.634951 99.8718434,268.516504 L64.5165043,303.871843 C59.6349506,308.753397 51.7203884,308.753397 46.8388348,303.871843 L46.8388348,303.871843 C41.9572811,298.99029 41.9572811,291.075727 46.8388348,286.194174 L82.1941738,250.838835 C87.0757275,245.957281 94.9902897,245.957281 99.8718434,250.838835 Z" id="Rectangle-10"></path>
            <path d="M75,175.5 L75,175.5 C75,182.403559 69.4035594,188 62.5,188 L12.5,188 C5.59644063,188 -9.30914651e-16,182.403559 -1.77635684e-15,175.5 L0,175.5 C-8.45442189e-16,168.596441 5.59644063,163 12.5,163 L62.5,163 C69.4035594,163 75,168.596441 75,175.5 Z" id="Rectangle-10"></path>
        </g>
    </g>
</svg>