<?xml version="1.0" standalone="no"?>
<!DOCTYPE svg PUBLIC "-//W3C//DTD SVG 20010904//EN"
 "http://www.w3.org/TR/2001/REC-SVG-20010904/DTD/svg10.dtd">
<svg version="1.0" xmlns="http://www.w3.org/2000/svg"
 width="620.000000pt" height="620.000000pt" viewBox="0 0 620.000000 620.000000"
 preserveAspectRatio="xMidYMid meet">
<metadata>
Created by potrace 1.11, written by Peter Selinger 2001-2013
</metadata>
<g transform="translate(0.000000,620.000000) scale(0.100000,-0.100000)"
fill="#000000" stroke="none">
<path d="M598 5935 c-1 -2 -50 -6 -108 -10 -205 -13 -224 -16 -303 -58 -70
-36 -120 -91 -156 -166 -22 -48 -26 -70 -26 -147 0 -84 3 -96 35 -160 59 -115
197 -205 305 -198 22 1 92 6 155 11 212 14 719 9 925 -11 76 -7 170 -17 195
-21 41 -6 104 -16 125 -20 11 -3 31 -6 45 -8 81 -12 365 -86 512 -133 59 -20
111 -35 115 -36 5 0 17 -5 28 -11 11 -6 22 -12 25 -12 7 -2 58 -23 105 -42 96
-41 357 -181 363 -195 2 -4 8 -8 14 -8 9 0 196 -124 242 -160 142 -112 331
-298 452 -445 169 -205 355 -584 399 -815 2 -8 8 -33 14 -56 6 -22 13 -56 15
-75 3 -19 5 -34 6 -34 3 0 9 -38 16 -90 3 -27 7 -61 9 -75 19 -130 19 -571 1
-805 -3 -33 -8 -96 -12 -140 -3 -44 -8 -93 -10 -110 -2 -16 -7 -59 -9 -95 -3
-36 -7 -74 -10 -85 -2 -11 -4 -22 -4 -25 -1 -6 -20 27 -50 85 -11 22 -37 72
-59 110 -21 39 -51 93 -67 120 -15 28 -38 64 -51 82 -13 17 -24 34 -24 38 0 8
-176 272 -190 285 -3 3 -17 21 -30 40 -159 229 -452 510 -604 580 -118 53
-285 26 -377 -62 -78 -74 -120 -167 -121 -268 -1 -109 5 -121 221 -435 41 -60
107 -155 146 -210 38 -55 78 -111 87 -125 10 -14 31 -43 48 -65 16 -22 33 -47
37 -55 3 -8 9 -17 13 -20 3 -3 31 -41 63 -85 31 -44 61 -85 67 -92 5 -7 10
-17 10 -23 0 -5 4 -10 8 -10 4 0 16 -15 27 -32 10 -18 21 -35 25 -38 6 -5 119
-160 150 -206 8 -12 56 -78 106 -146 49 -68 111 -161 136 -208 25 -47 54 -101
64 -120 11 -19 21 -37 24 -40 10 -10 90 -153 90 -161 0 -5 4 -9 9 -9 5 0 14
-13 21 -30 7 -16 16 -30 20 -30 4 0 13 -13 20 -30 7 -16 15 -30 19 -30 3 0 17
-17 31 -37 48 -73 138 -145 225 -181 73 -31 130 -41 209 -37 186 8 215 32 496
406 114 152 215 285 223 295 8 11 60 75 115 144 55 69 113 139 129 157 15 18
42 48 58 68 17 19 44 51 60 69 17 18 61 68 100 112 38 43 184 195 325 336 140
142 261 265 269 274 33 38 60 139 56 210 -4 105 -15 137 -71 209 -45 59 -53
67 -121 100 -64 32 -92 38 -163 37 -148 -2 -187 -27 -460 -296 -151 -150 -271
-276 -435 -460 -20 -22 -96 -110 -134 -156 l-21 -25 4 45 c2 25 5 45 6 45 0 0
3 29 5 65 2 36 6 90 9 120 37 396 37 762 0 1050 -8 67 -14 105 -19 130 -2 13
-7 42 -10 65 -14 103 -90 398 -124 480 -5 11 -26 65 -46 120 -21 55 -46 116
-55 135 -10 19 -19 40 -20 45 -1 6 -6 15 -12 22 -13 16 -87 153 -95 176 -3 9
-9 17 -14 17 -5 0 -9 5 -9 10 0 12 -120 192 -169 255 -133 170 -326 373 -451
475 -30 25 -61 51 -68 58 -8 7 -30 25 -50 40 -21 15 -39 29 -42 32 -14 15
-210 150 -218 150 -5 0 -17 9 -27 20 -10 11 -21 20 -25 20 -4 0 -48 25 -98 55
-417 252 -1026 456 -1547 520 -27 4 -61 8 -75 10 -27 4 -89 11 -185 20 -33 4
-78 8 -100 11 -47 6 -751 14 -757 9z"/>
</g>
</svg>
