<svg width="42" height="41" viewBox="0 0 42 41" fill="none" xmlns="http://www.w3.org/2000/svg">
<g filter="url(#filter0_d)">
<circle cx="18" cy="18" r="14" fill="#2348C2"/>
</g>
<path d="M15.3829 10.2377L15.412 20.4195L13.2593 20.4257L13.2361 12.2872L13.1764 12.2874L10.8489 13.7557L10.8435 11.8466L13.3595 10.2435L15.3829 10.2377Z" fill="white"/>
<path d="M16.2214 25.3342L16.6837 23.8535L21.1434 21.7303C21.7187 21.4447 22.1707 21.1813 22.4994 20.9402C22.8282 20.6991 23.0528 20.3855 23.1733 19.9995C23.3067 19.5724 23.2695 19.191 23.0618 18.8554C22.8583 18.5175 22.5429 18.2819 22.1158 18.1486C21.6729 18.0103 21.2734 18.0331 20.9174 18.2171C20.5655 18.3989 20.3185 18.7228 20.1765 19.1889L18.226 18.5799C18.4245 17.944 18.7408 17.4369 19.1749 17.0585C19.609 16.6802 20.1239 16.4433 20.7196 16.3481C21.3185 16.2538 21.9581 16.3129 22.6383 16.5252C23.3343 16.7425 23.9016 17.0551 24.3403 17.4629C24.7831 17.8685 25.0808 18.3329 25.2334 18.8563C25.3869 19.3764 25.3758 19.9181 25.2 20.4812C25.0854 20.8482 24.8995 21.1878 24.6424 21.4998C24.3852 21.8119 24.005 22.129 23.5017 22.451C23.0025 22.7708 22.3243 23.1303 21.4671 23.5293L19.614 24.4768L19.5933 24.5432L23.6746 25.8174L23.1501 27.4974L16.2214 25.3342Z" fill="white"/>
<path d="M23.7252 38.1973C23.3381 37.5599 23.104 36.9285 23.0228 36.3031C22.9416 35.6777 23.009 35.1055 23.2251 34.5865C23.4412 34.0675 23.7993 33.6484 24.2995 33.3291L25.4246 35.1819C25.1177 35.3915 24.949 35.6917 24.9187 36.0824C24.8901 36.4759 24.9988 36.8752 25.2448 37.2803C25.5012 37.7024 25.8178 37.9812 26.1949 38.1168C26.5764 38.2534 26.9392 38.2154 27.2831 38.0027C27.6361 37.7922 27.8353 37.4754 27.8808 37.0522C27.9309 36.6302 27.8062 36.1727 27.5069 35.6798L27.014 34.8681L28.3653 34.0475L28.8582 34.8592C29.1128 35.2785 29.4249 35.5562 29.7945 35.6923C30.167 35.8268 30.5238 35.7885 30.8648 35.5775C31.1952 35.3808 31.3927 35.1057 31.4573 34.7524C31.5236 34.4019 31.4441 34.0411 31.2188 33.67C30.9899 33.2932 30.6955 33.0319 30.3355 32.886C29.9755 32.7401 29.6263 32.7622 29.288 32.9521L28.2171 31.1886C28.7236 30.8926 29.2525 30.7673 29.8035 30.8127C30.3574 30.8563 30.8848 31.0479 31.3856 31.3874C31.8882 31.7298 32.3202 32.1984 32.6815 32.7933C33.0462 33.3939 33.2562 33.9857 33.3116 34.5686C33.367 35.1515 33.2849 35.6803 33.0652 36.1549C32.85 36.6307 32.5121 37.0065 32.0514 37.2824C31.5659 37.5811 31.0673 37.6764 30.5557 37.5683C30.0458 37.463 29.599 37.1934 29.2153 36.7595L29.1473 36.8008C29.4568 37.4892 29.5317 38.1107 29.3721 38.6651C29.2142 39.2225 28.8639 39.664 28.3211 39.9898C27.827 40.2937 27.2996 40.4181 26.7389 40.3631C26.1798 40.311 25.6367 40.0999 25.1095 39.7298C24.5823 39.3597 24.1209 38.8489 23.7252 38.1973Z" fill="black"/>
<defs>
<filter id="filter0_d" x="0" y="0" width="40" height="40" filterUnits="userSpaceOnUse" color-interpolation-filters="sRGB">
<feFlood flood-opacity="0" result="BackgroundImageFix"/>
<feColorMatrix in="SourceAlpha" type="matrix" values="0 0 0 0 0 0 0 0 0 0 0 0 0 0 0 0 0 0 127 0"/>
<feOffset dx="2" dy="2"/>
<feGaussianBlur stdDeviation="3"/>
<feColorMatrix type="matrix" values="0 0 0 0 0 0 0 0 0 0 0 0 0 0 0 0 0 0 0.25 0"/>
<feBlend mode="normal" in2="BackgroundImageFix" result="effect1_dropShadow"/>
<feBlend mode="normal" in="SourceGraphic" in2="effect1_dropShadow" result="shape"/>
</filter>
</defs>
</svg>
