<?xml version="1.0" encoding="UTF-8"?>
<svg width="150px" height="150px" viewBox="0 0 150 150" version="1.1" xmlns="http://www.w3.org/2000/svg" xmlns:xlink="http://www.w3.org/1999/xlink">
    <!-- Generator: Sketch 51.3 (57544) - http://www.bohemiancoding.com/sketch -->
    <title>Group 4</title>
    <desc>Created with Sketch.</desc>
    <defs></defs>
    <g id="Page-1" stroke="none" stroke-width="1" fill="none" fill-rule="evenodd">
        <g id="Group-4" transform="translate(28.819149, 8.000000)">
            <path d="M62.0685076,110.80501 L62.0685076,133.338496 C62.0685076,138.124997 57.7264737,142.005222 52.3703033,142.005222 L40.7324581,142.005222 C35.3762878,142.005222 31.0342538,138.124997 31.0342538,133.338496 L31.0342538,108.204992 C31.0342538,102.461191 36.2446946,97.8049211 42.672099,97.8049211 L47.5212012,97.8049211 C55.5554567,97.8049211 62.0685076,103.625259 62.0685076,110.80501 Z" id="Rectangle-3" fill="#6F6F6F"></path>
            <path d="M14.953988,85.582182 C5.767794,76.5866823 0,63.6059693 0,49.1729116 C0,22.0154624 20.4207174,0 45.6109488,0 C70.8011802,0 91.2218976,22.0154624 91.2218976,49.1729116 C91.2218976,63.6059693 85.4541036,76.5866823 76.2679096,85.582182 C76.9878372,86.1301732 77.4525546,86.996212 77.4525546,87.9707912 L77.4525546,117.375288 C77.4525546,119.032142 76.1094088,120.375288 74.4525546,120.375288 L16.769343,120.375288 C15.1124888,120.375288 13.769343,119.032142 13.769343,117.375288 L13.769343,87.9707912 C13.769343,86.996212 14.2340603,86.1301732 14.953988,85.582182 Z" id="Combined-Shape" stroke="#6F6F6F" stroke-width="15" fill="#FFAD00"></path>
            <rect id="Rectangle-3" fill="#CDCDCD" x="19.7490706" y="79.9367144" width="51.7237564" height="34.7959816"></rect>
        </g>
    </g>
</svg>