<?xml version="1.0" standalone="no"?>
<!DOCTYPE svg PUBLIC "-//W3C//DTD SVG 20010904//EN"
 "http://www.w3.org/TR/2001/REC-SVG-20010904/DTD/svg10.dtd">
<svg version="1.0" xmlns="http://www.w3.org/2000/svg"
 width="641.000000pt" height="641.000000pt" viewBox="0 0 641.000000 641.000000"
 preserveAspectRatio="xMidYMid meet">
<metadata>
Created by potrace 1.11, written by Peter Selinger 2001-2013
</metadata>
<g transform="translate(0.000000,641.000000) scale(0.100000,-0.100000)"
fill="#000000" stroke="none">
<path d="M3124 6383 c4 -8 -6 -11 -30 -9 -23 2 -33 -1 -30 -9 3 -8 -14 -12
-53 -13 -62 0 -84 -4 -91 -14 -3 -3 -12 -8 -20 -10 -8 -2 -21 -10 -28 -18 -12
-13 -13 -13 -6 0 7 12 5 13 -8 3 -8 -7 -18 -9 -22 -5 -4 4 -6 0 -4 -8 2 -8 -2
-14 -9 -13 -6 1 -17 -4 -23 -12 -7 -8 -21 -15 -32 -15 -10 0 -16 -4 -13 -10 3
-5 -3 -10 -14 -10 -12 0 -21 -4 -21 -10 0 -5 -9 -10 -21 -10 -11 0 -17 -4 -14
-10 3 -5 -1 -10 -9 -10 -8 0 -20 -9 -26 -21 -9 -16 -14 -18 -26 -8 -12 10 -13
9 -8 -5 3 -9 1 -16 -5 -16 -17 0 -61 -46 -53 -56 4 -4 -1 -4 -12 0 -13 4 -17
2 -13 -8 4 -10 1 -13 -7 -10 -7 3 -16 -2 -20 -11 -3 -9 -10 -14 -15 -11 -5 3
-12 -1 -15 -10 -4 -10 -2 -13 7 -8 6 4 2 -3 -10 -15 -12 -11 -29 -21 -38 -21
-8 0 -15 -7 -15 -15 0 -9 -7 -18 -15 -21 -8 -4 -15 -13 -15 -21 0 -8 -4 -12
-9 -8 -13 7 -34 -32 -25 -47 5 -8 2 -9 -11 -4 -16 6 -16 4 -4 -11 9 -11 10
-14 2 -9 -12 6 -18 -11 -14 -36 0 -5 -4 -8 -9 -8 -6 0 -10 -13 -10 -30 0 -16
-4 -30 -10 -30 -5 0 -10 -7 -10 -15 0 -8 -6 -15 -12 -15 -9 0 -9 -3 1 -9 12
-8 13 -12 1 -26 -9 -10 -12 -39 -11 -82 1 -46 -2 -69 -11 -74 -11 -7 -10 -9 1
-9 11 0 11 -3 1 -15 -9 -11 -9 -15 -1 -15 7 0 9 -5 5 -12 -7 -11 -10 -53 -4
-60 7 -11 7 -45 -1 -54 -6 -8 -6 -14 0 -18 6 -4 4 -18 -6 -36 -8 -17 -18 -28
-21 -26 -4 2 -7 -38 -6 -90 0 -52 -2 -94 -6 -94 -4 0 -5 -12 -3 -27 3 -21 2
-24 -6 -13 -7 10 -9 -13 -9 -77 1 -51 5 -90 10 -87 8 5 12 -9 9 -33 -1 -7 4
-13 12 -13 7 0 14 -7 15 -15 1 -8 3 -22 4 -30 1 -8 5 -12 10 -9 4 3 8 -2 8
-10 0 -9 5 -16 10 -16 6 0 10 -9 10 -21 0 -11 5 -17 10 -14 6 3 10 1 10 -5 0
-6 5 -8 10 -5 6 3 10 -1 10 -9 0 -14 27 -15 49 -1 5 3 13 0 17 -6 4 -8 3 -9
-4 -5 -7 4 -12 2 -12 -3 0 -6 3 -11 8 -11 4 0 7 -22 8 -50 0 -30 -3 -47 -9
-43 -6 4 -7 1 -2 -8 13 -20 15 -60 3 -53 -6 4 -6 -1 1 -14 14 -27 14 -35 -1
-26 -10 6 -10 4 0 -7 16 -17 16 -32 0 -23 -10 6 -10 4 -2 -7 6 -8 10 -40 10
-71 -1 -32 3 -58 7 -58 5 0 7 -7 4 -15 -4 -8 -3 -17 2 -19 4 -3 8 -19 9 -36 0
-16 7 -36 15 -44 8 -8 13 -28 12 -45 -1 -16 2 -28 7 -25 17 11 7 -12 -12 -26
-11 -8 -20 -20 -20 -28 0 -17 -25 -43 -34 -35 -3 4 -6 -1 -6 -9 0 -9 -7 -18
-15 -22 -8 -3 -14 -9 -13 -13 2 -4 -1 -10 -7 -12 -16 -7 -35 -29 -35 -41 0 -6
-4 -8 -10 -5 -5 3 -10 -3 -10 -14 0 -19 -10 -26 -32 -22 -4 0 -5 -5 -2 -12 2
-7 -7 -19 -21 -27 -14 -7 -23 -15 -21 -18 9 -9 -44 -52 -64 -52 -11 0 -20 -6
-20 -12 0 -10 -3 -9 -9 1 -5 8 -10 9 -12 2 -2 -6 -13 -12 -24 -14 -11 -1 -26
-7 -34 -11 -10 -6 -12 -5 -7 2 4 7 2 12 -3 12 -6 0 -11 -6 -11 -13 0 -9 -12
-13 -35 -12 -22 1 -36 -3 -40 -13 -4 -12 -8 -12 -22 -1 -12 10 -14 10 -9 2 5
-9 -2 -13 -24 -13 -20 0 -29 -4 -25 -11 4 -6 1 -10 -6 -8 -27 3 -50 -1 -46 -8
3 -5 -11 -9 -31 -11 -19 -1 -42 -8 -51 -15 -12 -9 -13 -9 -7 1 9 15 -6 16 -21
1 -8 -8 -13 -8 -17 0 -4 6 -13 11 -19 11 -7 0 -6 -4 3 -10 16 -11 7 -13 -57
-12 -21 0 -33 -4 -33 -13 0 -7 -8 -12 -17 -11 -10 2 -21 -2 -25 -8 -4 -6 -12
-12 -18 -12 -5 -1 -15 -2 -21 -3 -5 0 -8 -5 -5 -9 2 -4 -5 -9 -16 -9 -12 -1
-25 -8 -29 -15 -7 -10 -9 -10 -9 2 0 13 -1 13 -10 0 -9 -13 -10 -13 -10 0 0
13 -2 13 -9 1 -5 -8 -23 -14 -40 -13 -17 0 -31 -4 -31 -10 0 -5 -6 -8 -14 -5
-8 3 -30 -3 -50 -14 -21 -11 -41 -17 -46 -14 -6 4 -10 -1 -10 -10 0 -9 -4 -14
-9 -10 -5 3 -12 1 -16 -5 -4 -6 -11 -7 -17 -4 -6 4 -8 2 -4 -4 3 -6 -4 -14
-16 -18 -13 -3 -31 -15 -41 -25 -10 -11 -24 -16 -34 -12 -11 4 -14 3 -9 -5 4
-7 2 -12 -3 -12 -6 0 -11 -7 -11 -16 0 -14 -3 -14 -16 -4 -8 8 -14 9 -13 4 4
-22 -2 -35 -13 -28 -8 5 -9 2 -5 -9 4 -11 1 -17 -8 -17 -8 0 -15 -6 -15 -12 0
-9 -4 -8 -10 2 -8 12 -10 11 -10 -6 0 -12 -7 -25 -16 -28 -9 -4 -14 -13 -10
-22 3 -8 2 -12 -4 -9 -9 6 -15 -16 -11 -39 1 -5 -4 -6 -12 -3 -12 5 -15 -7
-18 -66 0 -9 -3 -15 -7 -13 -4 2 -8 -21 -10 -52 -2 -31 -7 -61 -12 -67 -6 -7
-5 -16 3 -25 9 -10 9 -11 0 -6 -9 5 -13 -3 -13 -29 0 -26 -3 -34 -12 -29 -8 5
-7 0 2 -11 9 -11 10 -16 2 -11 -16 9 -16 -6 1 -23 7 -8 7 -11 1 -8 -11 6 -17
-74 -16 -208 0 -16 -2 -37 -5 -45 -11 -28 -11 -40 -2 -34 13 7 11 -10 -2 -23
-8 -8 -8 -13 0 -17 8 -5 8 -13 1 -26 -7 -13 -7 -21 0 -25 15 -9 12 -27 -3 -19
-9 6 -9 4 1 -7 14 -15 16 -33 3 -25 -10 7 -9 -20 2 -30 12 -12 8 -26 -5 -18
-10 6 -10 4 0 -7 14 -15 17 -33 4 -25 -5 3 -9 -1 -9 -9 0 -8 4 -12 9 -9 9 6 5
-32 -5 -42 -4 -4 -1 -14 6 -22 10 -13 9 -15 -5 -9 -12 4 -15 2 -11 -8 3 -8 10
-12 17 -8 7 4 7 2 -1 -8 -10 -12 -10 -18 0 -29 9 -10 9 -11 0 -6 -15 8 -15 6
-17 -204 -1 -145 2 -202 13 -196 11 7 8 -59 -3 -66 -8 -5 -7 -8 1 -8 9 0 8 -7
-2 -26 -7 -15 -12 -35 -10 -46 3 -15 1 -17 -8 -9 -10 8 -13 3 -11 -19 1 -17
-2 -30 -7 -30 -11 0 -7 -23 6 -32 6 -5 3 -8 -6 -8 -12 0 -16 -10 -15 -41 1
-22 -2 -43 -6 -45 -5 -3 -6 -10 -3 -15 4 -5 2 -9 -4 -9 -14 0 -11 -401 3 -419
8 -11 8 -13 -1 -7 -7 4 -13 2 -13 -3 0 -6 5 -11 11 -11 8 0 7 -6 -2 -17 -10
-11 -10 -14 -1 -9 8 5 12 1 13 -11 1 -10 2 -31 3 -46 0 -15 8 -32 16 -38 13
-10 13 -10 -1 -6 -9 3 -16 -1 -16 -9 0 -7 5 -10 10 -7 6 4 8 0 4 -10 -3 -10
-3 -17 2 -17 5 0 8 -16 6 -35 -1 -24 1 -32 9 -26 8 6 11 -4 12 -35 1 -35 -2
-44 -12 -40 -12 4 -12 1 -4 -14 8 -15 8 -20 -1 -20 -6 0 -9 -7 -5 -15 3 -8 1
-15 -5 -15 -6 0 -8 -4 -4 -9 3 -5 1 -12 -4 -15 -8 -5 -8 -34 -1 -43 2 -2 3 -7
4 -12 0 -5 4 -12 8 -16 4 -4 3 -18 -2 -31 -6 -14 -6 -26 0 -29 7 -4 6 -13 0
-25 -12 -23 -13 -43 -2 -36 5 3 8 -5 7 -17 -1 -12 3 -25 9 -29 7 -5 7 -8 -2
-8 -10 0 -9 -4 3 -16 9 -10 14 -26 12 -36 -4 -15 -2 -18 10 -14 13 5 14 4 3
-9 -10 -12 -10 -15 0 -15 9 0 9 -4 -1 -17 -11 -13 -11 -15 -1 -9 9 5 13 3 11
-5 -1 -8 -1 -54 0 -104 1 -62 4 -85 11 -75 7 11 9 8 8 -15 -1 -16 -6 -36 -12
-44 -9 -11 -8 -13 2 -7 11 6 13 1 10 -25 l-3 -34 2438 -3 c1340 -1 2436 1
2436 5 -4 26 2 43 14 38 6 -4 5 -1 -3 7 -16 14 -20 42 -7 54 4 4 7 1 7 -6 0
-7 3 -11 6 -8 3 4 -2 18 -11 32 -17 25 -17 26 1 20 16 -6 17 -5 7 7 -7 7 -13
17 -13 22 0 4 6 5 13 1 10 -6 10 -4 0 7 -7 7 -13 17 -13 22 0 4 6 5 13 1 10
-6 10 -4 0 7 -15 15 -18 33 -5 25 5 -3 9 1 9 9 0 8 -4 12 -9 9 -4 -3 -8 2 -8
11 0 9 4 14 8 11 4 -2 9 4 9 15 1 11 -2 17 -7 14 -7 -4 -7 19 1 35 3 7 7 23 8
38 0 7 4 11 9 8 4 -2 8 12 8 32 3 126 4 133 16 126 8 -5 9 -2 5 9 -3 10 -2 17
3 17 5 0 7 7 4 15 -4 8 -1 15 5 15 6 0 11 5 11 11 0 5 -3 8 -7 6 -5 -3 -9 13
-11 36 -1 23 -6 44 -10 47 -7 5 -13 24 -15 52 -1 9 -5 14 -9 12 -4 -3 -8 4 -8
16 0 12 -4 18 -10 15 -6 -3 -10 1 -10 10 0 8 -7 18 -15 21 -8 4 -13 10 -10 14
3 4 -2 10 -10 14 -8 3 -15 17 -15 31 0 15 -4 24 -10 20 -5 -3 -10 1 -10 10 0
10 5 14 13 9 10 -6 10 -4 0 7 -14 14 -18 33 -5 25 4 -2 8 6 8 19 0 13 -4 21
-8 19 -10 -6 -11 10 -1 20 10 10 13 37 3 31 -7 -4 -15 217 -11 308 1 15 -3 27
-9 27 -5 0 -10 5 -10 11 0 5 5 7 10 4 13 -8 13 18 -1 32 -5 5 -10 29 -11 51 0
23 -4 40 -8 37 -3 -2 -7 2 -7 10 0 8 5 15 11 15 6 0 4 5 -6 10 -10 6 -14 18
-11 30 3 11 1 26 -5 33 -6 7 -11 22 -10 32 1 27 -5 49 -17 57 -6 5 -5 8 2 8 7
0 10 7 6 16 -4 12 -8 13 -13 3 -5 -7 -7 6 -5 29 2 29 -2 43 -12 47 -13 4 -13
8 -2 22 12 14 12 16 0 8 -11 -6 -13 -4 -8 7 3 9 -1 25 -9 36 -10 14 -11 23 -4
27 8 5 8 11 0 19 -5 7 -11 32 -13 54 -1 23 -7 45 -11 49 -5 5 -6 2 -1 -6 5 -9
4 -12 -2 -8 -5 3 -9 16 -8 29 1 13 -3 29 -9 37 -8 11 -8 13 2 7 6 -4 12 -2 12
3 0 6 -4 11 -8 11 -4 0 -9 12 -10 27 -1 15 -5 29 -10 32 -4 3 -7 21 -7 39 1
19 -3 36 -7 38 -4 3 -8 21 -8 40 0 19 -3 33 -8 31 -4 -3 -8 18 -9 45 -1 28 -6
55 -12 61 -15 15 -14 40 2 31 10 -6 10 -4 0 7 -7 7 -13 29 -13 49 0 20 -5 41
-11 47 -5 5 -10 33 -11 62 0 28 -4 51 -9 51 -5 0 -9 15 -9 33 0 18 -6 39 -12
46 -10 11 -10 13 0 7 6 -4 12 -2 12 3 0 6 -5 11 -11 11 -8 0 -7 6 2 17 10 11
10 14 2 9 -14 -8 -14 -6 -17 34 0 14 -5 31 -10 39 -7 11 -6 12 5 6 11 -7 12
-6 2 7 -7 8 -10 18 -6 21 3 4 2 7 -4 7 -6 0 -10 8 -10 18 0 52 -4 73 -13 67
-6 -4 -10 11 -10 37 0 30 -3 39 -10 28 -6 -10 -9 -6 -8 16 1 16 -5 40 -12 53
-6 13 -8 21 -3 18 5 -4 10 0 10 8 0 8 -4 12 -9 9 -9 -6 -9 -5 -13 41 -4 45 -4
47 -13 41 -4 -3 -8 10 -8 27 1 18 -4 31 -9 30 -6 -1 -12 7 -12 18 -2 23 -61
82 -74 73 -5 -3 -9 0 -9 6 0 6 -4 8 -10 5 -6 -3 -10 -1 -10 5 0 6 -5 8 -12 4
-7 -5 -9 -2 -5 9 4 11 2 14 -9 10 -7 -3 -14 0 -14 7 0 7 -7 10 -15 6 -8 -3
-14 -2 -12 2 1 4 0 7 -3 7 -3 0 -18 8 -33 18 -15 9 -27 15 -27 12 0 -4 -7 1
-16 9 -8 9 -20 14 -25 10 -6 -3 -25 6 -44 20 -18 14 -42 26 -52 26 -10 0 -33
9 -51 20 -32 20 -61 29 -32 10 8 -5 11 -10 5 -10 -14 1 -46 26 -40 32 5 5 -16
8 -55 8 -20 0 -22 2 -10 10 11 7 4 10 -27 10 -24 0 -43 5 -43 10 0 6 -13 10
-29 10 -17 0 -33 5 -36 10 -4 7 -12 7 -23 1 -12 -7 -23 -5 -36 7 -18 16 -19
16 -13 0 4 -12 2 -15 -8 -11 -8 3 -13 8 -11 12 2 3 -16 6 -40 5 -35 -1 -44 1
-40 12 5 12 2 12 -15 3 -15 -8 -19 -8 -15 0 6 10 -20 16 -46 12 -5 0 -8 3 -8
9 0 5 -16 10 -36 10 -19 0 -33 4 -30 8 6 9 2 10 -64 13 -25 0 -53 6 -64 11
-10 6 -16 6 -13 1 4 -5 0 -10 -8 -10 -8 0 -11 5 -8 10 4 6 -5 8 -21 5 -14 -3
-26 -1 -26 4 0 5 -8 8 -17 6 -10 -2 -17 3 -15 10 1 6 -1 11 -5 11 -29 -5 -63
3 -58 12 4 6 0 9 -11 7 -11 -2 -18 2 -16 10 1 6 -2 11 -7 10 -5 -2 -10 2 -12
7 -1 6 -9 16 -16 23 -7 8 -11 18 -8 23 4 5 -1 9 -10 9 -9 0 -13 5 -10 10 3 6
1 10 -6 10 -7 0 -10 3 -6 6 8 9 -16 33 -27 26 -5 -3 -6 -1 -3 5 4 6 0 19 -8
29 -8 10 -15 28 -15 39 0 17 -2 17 -10 5 -8 -13 -10 -12 -10 3 0 9 -4 17 -10
17 -5 0 -10 10 -10 22 0 12 -3 19 -6 15 -8 -8 -34 18 -34 33 0 6 -3 9 -7 7 -5
-3 -17 5 -28 16 -11 11 -13 17 -5 12 8 -4 2 4 -15 18 -16 14 -34 23 -39 20 -5
-4 -6 -1 -2 5 4 8 0 12 -11 12 -14 0 -15 2 -4 9 15 10 41 75 41 104 0 9 5 17
10 17 6 0 10 10 10 23 0 13 4 27 9 33 7 7 19 62 21 97 0 5 5 5 12 1 7 -4 8 -3
4 4 -9 14 3 62 16 62 5 0 7 -4 4 -9 -4 -5 5 -4 19 2 14 7 25 18 25 25 0 7 7
15 15 18 8 4 13 10 10 14 -3 4 2 11 11 14 8 3 13 10 9 15 -3 5 4 16 16 24 15
11 17 16 7 20 -9 4 -9 6 3 6 9 1 22 12 29 26 7 13 18 21 24 18 6 -4 4 2 -4 12
-9 11 -10 16 -2 11 8 -5 12 1 12 19 0 17 4 24 12 19 8 -5 9 -2 5 9 -3 9 -2 19
4 22 5 4 7 11 4 16 -4 5 1 12 10 15 13 6 14 8 3 15 -7 5 -8 9 -2 9 9 0 12 72
4 90 -1 3 -1 10 1 15 1 6 3 53 4 105 2 60 6 95 14 98 6 2 11 17 11 33 0 17 4
28 8 25 5 -3 9 1 9 9 0 8 -4 12 -9 9 -5 -4 -4 3 4 15 7 12 17 21 23 21 5 0 3
5 -5 10 -10 6 -11 10 -2 10 7 0 12 13 12 29 0 16 5 31 10 33 6 2 11 40 11 88
1 136 0 152 -12 144 -7 -4 -7 1 1 16 8 15 8 20 1 16 -7 -5 -11 4 -11 24 0 22
-4 29 -12 24 -8 -5 -7 0 2 11 9 11 10 16 3 11 -9 -5 -13 2 -13 24 0 22 -4 29
-12 24 -8 -5 -7 0 2 11 9 11 10 16 3 11 -12 -6 -18 5 -14 27 0 4 -3 7 -7 7 -5
0 -9 6 -10 13 -2 22 -8 42 -20 65 -7 12 -10 22 -6 22 4 0 -1 10 -12 22 -12 13
-13 18 -4 13 9 -5 8 0 -4 13 -12 14 -14 22 -7 22 7 0 9 5 6 10 -4 6 -10 8 -14
6 -4 -3 -8 1 -9 9 -1 8 -3 22 -4 29 -1 8 -6 14 -12 13 -6 -1 -10 4 -8 11 1 6
-2 12 -8 12 -5 0 -10 7 -10 16 0 8 -4 13 -9 9 -5 -3 -18 8 -27 24 -10 17 -21
28 -26 25 -4 -3 -8 0 -8 5 0 6 -7 11 -15 11 -9 0 -18 7 -21 15 -4 8 -11 15
-17 15 -7 0 -29 19 -49 41 -21 23 -38 35 -38 28 -1 -9 -5 -6 -13 6 -7 11 -21
21 -32 23 -11 2 -24 9 -30 16 -5 7 -21 12 -33 11 -13 -1 -26 5 -29 12 -5 12
-7 12 -14 1 -7 -11 -9 -11 -9 1 0 8 -6 11 -16 7 -11 -4 -15 -2 -11 7 3 7 -3
13 -13 13 -10 0 -16 -5 -13 -11 3 -5 0 -4 -8 3 -7 6 -24 12 -37 12 -13 0 -21
4 -17 9 3 6 -4 8 -15 6 -11 -2 -20 0 -20 4 0 5 -11 6 -25 3 -15 -2 -25 0 -25
7 0 7 -4 10 -9 7 -5 -4 -12 0 -14 6 -3 7 -6 4 -6 -7 -1 -15 -3 -17 -10 -6 -11
18 -93 21 -87 4z m-484 -3274 c0 -5 5 -7 10 -4 6 4 10 -10 10 -35 0 -25 -4
-39 -10 -35 -5 3 -10 -1 -10 -9 0 -21 -20 -20 -36 2 -13 16 -14 16 -7 -3 3
-11 2 -16 -2 -12 -15 13 -5 80 13 93 21 16 32 17 32 3z m-1835 -2448 c3 -5 2
-12 -3 -15 -5 -3 -9 1 -9 9 0 17 3 19 12 6z"/>
<path d="M780 529 c0 -5 5 -7 10 -4 6 3 10 8 10 11 0 2 -4 4 -10 4 -5 0 -10
-5 -10 -11z"/>
</g>
</svg>
