<svg width="1350" height="3613" viewBox="0 0 1350 3613" fill="none" xmlns="http://www.w3.org/2000/svg">
<rect x="775" y="1018" width="480" height="372.057" rx="10" fill="#F0F0F0"/>
<rect x="1000" y="621" width="350" height="316.167" rx="5" fill="#F0F0F0"/>
<rect x="706" y="135" width="126.667" height="100" rx="8" fill="#F0F0F0"/>
<rect x="601" width="100" height="100" rx="14" fill="#F0F0F0"/>
<rect x="109" y="1197" width="108" height="109" rx="54" fill="#F0F0F0"/>
<rect y="1320" width="109" height="108" rx="54" fill="#F0F0F0"/>
<rect x="390" y="1581" width="108" height="109" rx="54" fill="#F0F0F0"/>
<rect x="1075" y="2620" width="275" height="275" rx="137.5" fill="#F0F0F0"/>
<rect x="498" y="1459" width="109" height="108" rx="54" fill="#F0F0F0"/>
<rect x="177" y="1328" width="195" height="195" rx="97.5" fill="#F0F0F0"/>
<path d="M314.825 1561.23C322.666 1574.81 335.743 1580.21 346.059 1574.21C353.605 1569.9 356.217 1562.01 352.208 1552.48L352.681 1552.2C357.794 1558.27 365.27 1560.17 372.044 1556.22C381.597 1550.74 384.272 1538.06 377.045 1525.54C369.886 1513.14 357.237 1508 346.683 1513.86L353.757 1526.11C358.448 1523.6 363.867 1526.1 366.884 1531.33C369.867 1536.5 368.732 1541.76 364.168 1544.35C359.432 1547.13 353.879 1544.94 350.521 1539.12L347.265 1533.48L337.877 1538.9L341.132 1544.54C345.087 1551.39 344.134 1557.65 339.245 1560.43C334.45 1563.24 328.757 1561.02 325.382 1555.17C322.126 1549.53 322.641 1543.61 326.933 1540.81L319.501 1527.94C309.051 1534.25 307.154 1547.94 314.825 1561.23Z" fill="#F0F0F0"/>
<rect x="629" y="1544" width="109" height="109" rx="54.5" fill="#F0F0F0"/>
<rect y="1847" width="450" height="450" fill="#F0F0F0"/>
<rect x="553" y="2079" width="450" height="450" fill="#F0F0F0"/>
<path d="M0 473.5H108.5V525C108.5 529.418 104.918 533 100.5 533H8C3.58172 533 0 529.418 0 525V473.5Z" fill="#F0F0F0"/>
<rect x="16" y="408" width="74.5" height="125" rx="8" fill="#F0F0F0"/>
<rect x="139" y="240" width="75" height="189.637" rx="8" fill="#F0F0F0"/>
<rect x="185" y="3343" width="80" height="81" rx="40" fill="#F0F0F0"/>
<rect x="185" y="3015" width="80" height="303" rx="40" fill="#F0F0F0"/>
<rect x="510" y="3532" width="80" height="81" rx="40" fill="#F0F0F0"/>
<rect x="510" y="3204" width="80" height="303" rx="40" fill="#F0F0F0"/>
<rect x="784" y="3111" width="80" height="81" rx="40" fill="#F0F0F0"/>
<rect x="784" y="2783" width="80" height="303" rx="40" fill="#F0F0F0"/>
<rect y="2766" width="80" height="81" rx="40" fill="#F0F0F0"/>
<rect y="2438" width="80" height="303" rx="40" fill="#F0F0F0"/>
</svg>
